<!-- Generated by IcoMoon.io -->
<svg version="1.1" xmlns="http://www.w3.org/2000/svg" width="32" height="32" viewBox="0 0 32 32">
<path d="M32 19.774c0-0.859-0.245-1.668-0.669-2.35-0.279-0.448-0.634-0.842-1.048-1.165 0.399-0.561 0.669-1.226 0.76-1.954 0.022-0.178 0.033-0.356 0.033-0.531 0-1.067-0.398-2.064-1.065-2.824v0.001c-0.483-0.551-1.112-0.981-1.834-1.228 0.152-0.463 0.233-0.946 0.234-1.432v-0.003c-0.001-0.512-0.090-1.027-0.273-1.518s-0.461-0.96-0.834-1.376c-0.439-0.492-0.966-0.866-1.536-1.115-0.562-0.247-1.166-0.372-1.772-0.375-0.001 0-0.007 0-0.018 0v-0.001c-0.002 0.001-0.017-0.001-0.045 0.001-0.071 0.001-0.142 0.003-0.214 0.006-0.208-0.753-0.608-1.427-1.144-1.962-0.403-0.403-0.884-0.73-1.418-0.956-0.523-0.222-1.1-0.345-1.699-0.35-0.001 0-0.012 0-0.030-0.001h-0.009c-0.001 0-0.001 0-0.001 0-0.008 0-0.020 0-0.038 0.001-0.6 0.006-1.175 0.129-1.698 0.35-0.535 0.226-1.015 0.553-1.418 0.956h0.001c-0.092 0.092-0.179 0.188-0.263 0.288-0.083-0.099-0.171-0.196-0.263-0.288-0.403-0.403-0.884-0.73-1.418-0.956-0.523-0.222-1.099-0.345-1.699-0.35 0 0-0.012 0-0.030-0.001h-0.009c0 0 0 0-0.001 0s-0.001 0-0.001 0c-0.007 0-0.020 0-0.037 0.001-0.6 0.006-1.175 0.129-1.699 0.35-0.534 0.226-1.015 0.553-1.418 0.956-0.536 0.535-0.936 1.209-1.144 1.962-0.078-0.005-0.156-0.007-0.235-0.007v-0.001c0 0-0.006 0-0.014-0.001-0.002 0.001-0.015 0-0.041 0.001-0.601 0.005-1.2 0.13-1.759 0.375-0.569 0.249-1.097 0.623-1.536 1.116-0.379 0.423-0.663 0.903-0.851 1.407s-0.283 1.035-0.283 1.563c0 0 0 0.009 0 0.022h0.001c0.002 0.434 0.070 0.867 0.197 1.284-0.526 0.236-0.998 0.569-1.391 0.977v-0.001c-0.387 0.402-0.699 0.876-0.915 1.4s-0.334 1.098-0.334 1.695c0 0.053 0.001 0.106 0.003 0.159 0.021 0.591 0.157 1.155 0.387 1.666 0.094 0.21 0.205 0.41 0.329 0.601-0.466 0.339-0.865 0.765-1.17 1.256-0.423 0.682-0.669 1.491-0.669 2.35 0 0.614 0.125 1.203 0.351 1.738s0.553 1.015 0.957 1.418h-0.001c0.402 0.402 0.881 0.727 1.413 0.954 0.22 0.093 0.449 0.168 0.686 0.226-0.088 0.352-0.133 0.712-0.133 1.070h-0.001v0.011c0 0.614 0.126 1.227 0.377 1.797s0.626 1.098 1.12 1.537c0.423 0.376 0.901 0.659 1.405 0.847 0.495 0.184 1.015 0.278 1.534 0.28 0.008 0.001 0.015 0.001 0.021 0.001 0.001 0 0.002 0 0.003 0h0.001c0 0 0 0 0.001 0h0.011v-0c0.406-0.001 0.811-0.058 1.202-0.17 0.144 0.202 0.303 0.392 0.479 0.568v-0.001c0.403 0.404 0.884 0.73 1.418 0.957 0.522 0.221 1.097 0.345 1.695 0.35 0.013 0.001 0.024 0.001 0.042 0.001h0.001c0.001 0 0.001 0 0.001 0 0.013 0 0.019-0.001 0.019-0.001 0.607-0.002 1.189-0.127 1.718-0.35 0.534-0.226 1.015-0.553 1.418-0.956 0.092-0.092 0.179-0.188 0.263-0.288 0.084 0.1 0.171 0.197 0.263 0.288 0.403 0.403 0.884 0.73 1.418 0.956 0.522 0.221 1.096 0.345 1.695 0.35 0.013 0.001 0.024 0.001 0.042 0.001 0 0 0 0 0 0s0.001 0 0.001 0 0.001 0 0.001 0c0.013 0 0.019-0.001 0.019-0.001 0.607-0.002 1.189-0.127 1.718-0.35 0.534-0.226 1.015-0.553 1.418-0.957v0.001c0.175-0.175 0.335-0.365 0.479-0.568 0.396 0.112 0.804 0.17 1.214 0.17 0 0 0.001 0 0.001 0 0.002 0 0.003 0 0.005 0 0.011 0 0.017-0 0.018-0 0.519-0.003 1.039-0.095 1.536-0.281 0.503-0.187 0.982-0.471 1.405-0.847 0.494-0.44 0.869-0.968 1.12-1.537 0.248-0.567 0.375-1.174 0.376-1.783h0.001c0-0.009 0-0.013 0-0.013v-0.002c0-0.362-0.045-0.725-0.134-1.081 0.237-0.057 0.466-0.133 0.686-0.226 0.533-0.226 1.011-0.552 1.413-0.954h-0.001c0.403-0.403 0.73-0.884 0.957-1.418s0.351-1.124 0.351-1.738zM15.525 15.597c-0.328-0.112-0.668-0.169-1.015-0.169-0.322 0-0.642 0.049-0.951 0.145l-0.012 0.005c-0.425 0.148-0.838 0.222-1.23 0.222-0.692 0-1.292-0.229-1.736-0.661-0.402-0.391-0.631-0.927-0.631-1.469 0.001-0.484 0.178-0.953 0.513-1.355 0.168-0.201 0.141-0.501-0.060-0.669-0.085-0.071-0.193-0.11-0.305-0.11-0.141 0-0.274 0.062-0.364 0.17-0.481 0.575-0.735 1.254-0.734 1.963 0 0.797 0.334 1.581 0.917 2.15 0.615 0.601 1.466 0.932 2.401 0.932 0.494 0 1.010-0.092 1.527-0.271 0.216-0.068 0.44-0.102 0.665-0.102 0.352 0 0.701 0.086 1.015 0.249v4.097h-2.516c-0.262 0-0.475 0.213-0.475 0.475s0.213 0.475 0.475 0.475h2.516v5.223c0 0.392-0.076 0.772-0.221 1.124-0.002 0.004-0.004 0.006-0.005 0.009-0.112 0.268-0.262 0.516-0.443 0.736-0.004 0.006-0.009 0.010-0.013 0.015-0.026 0.032-0.053 0.063-0.080 0.092-0.024 0.027-0.049 0.052-0.075 0.078-0.008 0.009-0.016 0.018-0.025 0.026l-0.001 0.001c-0.006 0.006-0.011 0.010-0.017 0.016-0.028 0.028-0.057 0.056-0.087 0.083-0.017 0.015-0.033 0.029-0.050 0.044-0.019 0.017-0.038 0.033-0.057 0.049-0.029 0.024-0.058 0.046-0.088 0.069-0.007 0.006-0.015 0.012-0.022 0.017-0.189 0.141-0.395 0.26-0.614 0.353-0.087 0.037-0.176 0.069-0.267 0.098-0.002 0.001-0.002 0.001-0.003 0.001-0.040 0.012-0.079 0.024-0.12 0.034-0.008 0.002-0.015 0.005-0.023 0.006-0.034 0.009-0.069 0.016-0.103 0.024-0.014 0.003-0.027 0.006-0.041 0.009-0.029 0.006-0.059 0.010-0.089 0.016-0.019 0.003-0.037 0.007-0.057 0.009-0.026 0.005-0.053 0.007-0.080 0.010-0.022 0.003-0.044 0.006-0.066 0.008-0.027 0.003-0.054 0.005-0.082 0.006-0.022 0.002-0.044 0.004-0.066 0.005-0.043 0.002-0.087 0.003-0.13 0.003-0.006 0-0.013 0.001-0.019 0.001s-0.014-0.001-0.022-0.001c-0.042 0-0.085-0.001-0.127-0.003-0.023-0.001-0.045-0.003-0.068-0.005-0.026-0.002-0.053-0.003-0.079-0.006-0.023-0.002-0.045-0.006-0.068-0.008-0.026-0.003-0.052-0.006-0.078-0.010-0.019-0.002-0.039-0.006-0.059-0.010-0.029-0.005-0.058-0.010-0.087-0.015-0.014-0.003-0.029-0.007-0.043-0.010-0.034-0.008-0.068-0.015-0.101-0.024-0.008-0.002-0.017-0.005-0.025-0.007-0.040-0.010-0.079-0.021-0.117-0.033-0.002-0.001-0.005-0.001-0.006-0.002-0.090-0.028-0.179-0.060-0.265-0.097-0.22-0.093-0.425-0.211-0.614-0.353-0.008-0.006-0.015-0.013-0.024-0.018-0.029-0.022-0.058-0.044-0.086-0.068-0.021-0.018-0.042-0.036-0.063-0.054-0.014-0.013-0.030-0.025-0.044-0.038-0.035-0.032-0.070-0.066-0.105-0.099-0.001-0.001-0.001-0.002-0.002-0.002-0.049-0.049-0.097-0.101-0.143-0.155-0.008-0.009-0.016-0.018-0.023-0.027-0.148-0.176-0.276-0.369-0.381-0.577-0.002-0.004-0.005-0.008-0.007-0.012-0.2-0.402-0.307-0.848-0.307-1.31 0-0.352 0.079-0.734 0.222-1.075 0.159-0.377 0.393-0.703 0.678-0.941 0.098-0.081 0.157-0.195 0.169-0.322s-0.027-0.249-0.108-0.347c-0.090-0.108-0.223-0.17-0.365-0.17-0.111 0-0.219 0.039-0.304 0.11-0.402 0.335-0.729 0.786-0.946 1.304-0.193 0.461-0.295 0.96-0.296 1.442 0 0.348 0.047 0.693 0.138 1.028-0.051 0.020-0.102 0.040-0.155 0.057-0.013 0.005-0.028 0.009-0.041 0.013-0.033 0.010-0.065 0.020-0.098 0.029-0.021 0.006-0.041 0.011-0.063 0.017-0.026 0.006-0.052 0.013-0.078 0.018-0.024 0.006-0.048 0.012-0.072 0.016s-0.047 0.009-0.071 0.014c-0.025 0.005-0.050 0.009-0.076 0.013-0.024 0.003-0.048 0.007-0.072 0.010s-0.049 0.006-0.073 0.009c-0.029 0.002-0.058 0.005-0.087 0.006-0.020 0.002-0.040 0.003-0.060 0.005-0.049 0.002-0.098 0.004-0.148 0.004-0.72 0-1.415-0.265-1.954-0.744-0.627-0.558-0.986-1.36-0.987-2.2 0-0.044 0.001-0.088 0.003-0.131 0.011-0.252 0.055-0.502 0.131-0.746 0.003-0.011 0.006-0.022 0.010-0.034 0.001-0.005 0.003-0.010 0.005-0.015 0.012-0.037 0.025-0.074 0.039-0.111 0.001-0.002 0.001-0.003 0.002-0.005 0.019-0.051 0.040-0.101 0.062-0.151 0.002-0.005 0.005-0.009 0.006-0.014 0.024-0.052 0.048-0.103 0.075-0.155 0.001-0.001 0.001-0.002 0.001-0.002 0.111-0.213 0.248-0.411 0.409-0.593 0.174-0.196 0.156-0.496-0.040-0.67-0.087-0.078-0.199-0.12-0.315-0.12-0.136 0-0.265 0.059-0.355 0.16-0.028 0.031-0.055 0.063-0.082 0.095-0.043 0.007-0.070 0.011-0.093 0.014-0.037 0.004-0.085 0.005-0.189 0.005-0.002 0-0.005 0-0.007 0-0 0-0.001 0-0.002 0-0.051 0-0.101-0.002-0.151-0.004-0.003-0.001-0.006-0.001-0.009-0.001-0.046-0.002-0.093-0.006-0.138-0.011-0.007 0-0.014-0.002-0.021-0.002-0.042-0.005-0.083-0.010-0.125-0.016-0.008-0.001-0.014-0.002-0.021-0.003-0.042-0.007-0.083-0.014-0.124-0.022-0.005-0.001-0.009-0.002-0.013-0.004-0.044-0.009-0.087-0.019-0.13-0.030-0.001-0-0.001-0-0.002-0-0.14-0.036-0.275-0.083-0.407-0.139-0.218-0.092-0.423-0.211-0.611-0.352-0.008-0.006-0.015-0.012-0.024-0.018-0.029-0.022-0.058-0.044-0.086-0.068-0.021-0.017-0.041-0.035-0.061-0.052-0.015-0.013-0.031-0.026-0.046-0.040-0.036-0.033-0.071-0.066-0.105-0.099s-0.068-0.070-0.1-0.106c-0.007-0.008-0.014-0.016-0.021-0.024-0.024-0.028-0.048-0.055-0.071-0.083-0.019-0.024-0.038-0.048-0.057-0.072-0.010-0.013-0.020-0.025-0.029-0.038-0.026-0.035-0.051-0.070-0.076-0.106-0.002-0.003-0.003-0.005-0.005-0.007-0.106-0.157-0.197-0.324-0.271-0.499-0.054-0.129-0.099-0.261-0.135-0.398-0.001-0.005-0.003-0.009-0.004-0.014-0.010-0.038-0.018-0.076-0.026-0.115-0.002-0.009-0.005-0.019-0.006-0.029-0.007-0.034-0.013-0.068-0.018-0.103-0.002-0.014-0.006-0.028-0.008-0.042-0.005-0.032-0.009-0.064-0.013-0.097-0.002-0.017-0.004-0.033-0.006-0.050-0.003-0.033-0.006-0.067-0.008-0.1-0.001-0.016-0.003-0.032-0.004-0.048-0.002-0.049-0.003-0.099-0.003-0.149 0-0.069 0.002-0.139 0.007-0.207 0.003-0.047 0.009-0.093 0.014-0.139 0.002-0.022 0.004-0.043 0.007-0.064 0.008-0.060 0.019-0.12 0.031-0.179 0.002-0.007 0.002-0.014 0.004-0.021 0.014-0.063 0.029-0.126 0.047-0.188 0.001-0.003 0.001-0.006 0.002-0.009 0.018-0.062 0.037-0.122 0.059-0.182 0.002-0.004 0.002-0.007 0.004-0.011 0.020-0.057 0.043-0.112 0.067-0.167 0.004-0.008 0.006-0.015 0.009-0.022 0.023-0.053 0.049-0.105 0.075-0.156 0.005-0.009 0.009-0.019 0.013-0.028 0.032-0.060 0.066-0.118 0.101-0.176 0.035-0.056 0.072-0.111 0.11-0.165 0.19-0.263 0.421-0.493 0.685-0.682 0.005-0.004 0.010-0.008 0.015-0.011 0.009-0.006 0.019-0.012 0.028-0.018 0.1-0.068 0.203-0.132 0.311-0.187l0.001-0.001c0.003-0.002 0.007-0.003 0.010-0.005 0.036-0.019 0.073-0.036 0.109-0.053 0.020-0.009 0.040-0.018 0.060-0.028 0.002 0 0.003-0.002 0.005-0.002 0.369-0.16 0.761-0.242 1.169-0.242 0.667 0 1.295 0.218 1.817 0.63 0.12 0.132 0.506 0.536 1.081 0.943 0.402 0.284 0.814 0.511 1.227 0.675 0.527 0.21 1.056 0.316 1.572 0.316 0.261 0 0.475-0.213 0.475-0.475s-0.213-0.475-0.475-0.475c-0.395 0-0.805-0.084-1.222-0.249-0.602-0.239-1.109-0.608-1.429-0.876-0.181-0.153-0.323-0.288-0.409-0.375-0.046-0.047-0.082-0.084-0.105-0.11l-0.030-0.033-0.017-0.019c-0.008-0.009-0.016-0.017-0.025-0.024l-0.019-0.017c-0.688-0.555-1.555-0.861-2.442-0.861-0.27 0-0.541 0.029-0.807 0.086-0.060-0.052-0.115-0.106-0.17-0.162-0.020-0.020-0.040-0.040-0.059-0.060-0.017-0.018-0.033-0.037-0.049-0.055-0.014-0.017-0.030-0.034-0.044-0.051-0.031-0.036-0.061-0.074-0.090-0.112-0.006-0.007-0.010-0.014-0.015-0.021-0.025-0.033-0.049-0.066-0.072-0.1-0.005-0.006-0.009-0.013-0.013-0.020-0.023-0.035-0.046-0.070-0.069-0.107-0.003-0.005-0.006-0.009-0.008-0.014-0.023-0.038-0.046-0.078-0.068-0.117-0.002-0.003-0.003-0.005-0.005-0.008-0.022-0.042-0.044-0.085-0.066-0.128 0 0 0-0.001-0.001-0.002-0.128-0.268-0.216-0.556-0.259-0.854-0.001-0.003-0.001-0.006-0.001-0.006-0.006-0.045-0.010-0.089-0.015-0.132-0.001-0.007-0.002-0.015-0.002-0.022-0.003-0.042-0.006-0.084-0.008-0.126 0-0.008-0.001-0.016-0.001-0.024v-0.001c-0.001-0.035-0.002-0.070-0.002-0.105 0-0.049 0.001-0.097 0.003-0.145 0.001-0.016 0.002-0.033 0.003-0.049 0.002-0.032 0.004-0.063 0.007-0.094 0.002-0.019 0.005-0.038 0.007-0.057 0.003-0.029 0.007-0.057 0.011-0.085 0.002-0.018 0.006-0.037 0.009-0.054 0.005-0.029 0.010-0.059 0.015-0.087 0.003-0.016 0.007-0.031 0.010-0.046 0.006-0.032 0.013-0.063 0.021-0.094 0.003-0.011 0.006-0.022 0.009-0.034 0.009-0.034 0.018-0.069 0.029-0.104 0.002-0.006 0.005-0.014 0.007-0.021 0.012-0.039 0.024-0.076 0.038-0.114 0.001-0.003 0.002-0.006 0.003-0.009 0.015-0.041 0.030-0.083 0.048-0.124l0.001-0.001c0.035-0.086 0.075-0.17 0.118-0.252 0 0 0 0 0.001-0.001 0.021-0.041 0.044-0.080 0.067-0.12 0.002-0.003 0.003-0.006 0.005-0.009 0.022-0.036 0.044-0.072 0.067-0.108 0.005-0.007 0.011-0.016 0.016-0.024 0.020-0.030 0.040-0.060 0.062-0.089 0.012-0.017 0.026-0.034 0.038-0.051 0.015-0.020 0.029-0.040 0.045-0.059 0.025-0.032 0.051-0.063 0.078-0.093 0.004-0.005 0.007-0.009 0.011-0.013 0.032-0.036 0.064-0.071 0.096-0.105 0.001-0.001 0.002-0.002 0.002-0.002 0.043-0.044 0.087-0.087 0.133-0.128 0.012-0.011 0.024-0.022 0.037-0.033 0.096-0.085 0.198-0.165 0.306-0.237 0.007-0.004 0.014-0.009 0.021-0.013 0.114-0.076 0.234-0.144 0.36-0.203 0.001-0.001 0.002-0.001 0.003-0.001 0.194-0.092 0.399-0.163 0.614-0.211 0.002-0.001 0.003-0.001 0.005-0.002 0.175-0.038 0.354-0.062 0.537-0.068 0.033-0.002 0.066-0.002 0.105-0.002h0.001c0.152 0 0.304 0.012 0.453 0.035 0.025 0.003 0.049 0.006 0.073 0.006 0.236 0 0.433-0.169 0.469-0.403 0.040-0.259-0.138-0.502-0.397-0.542-0.198-0.030-0.398-0.046-0.598-0.046-0.033 0-0.066 0.001-0.099 0.002-0.021-0.036-0.041-0.074-0.060-0.11-0.021-0.040-0.041-0.079-0.060-0.119-0.007-0.015-0.014-0.029-0.020-0.045-0.020-0.043-0.038-0.086-0.056-0.129-0.005-0.013-0.010-0.027-0.015-0.040-0.017-0.045-0.033-0.090-0.048-0.136-0.005-0.013-0.009-0.028-0.013-0.041-0.014-0.045-0.027-0.090-0.038-0.136-0.005-0.017-0.008-0.032-0.012-0.049-0.010-0.043-0.020-0.086-0.028-0.13-0.005-0.022-0.008-0.043-0.011-0.064-0.006-0.039-0.013-0.078-0.018-0.117-0.004-0.032-0.007-0.063-0.010-0.095-0.003-0.029-0.006-0.059-0.008-0.088-0.004-0.061-0.006-0.123-0.006-0.186v-0.001c0-0.679 0.234-1.332 0.66-1.856 0.005-0.006 0.010-0.012 0.015-0.018 0.024-0.029 0.048-0.057 0.073-0.086 0.016-0.017 0.032-0.033 0.047-0.050 0.020-0.022 0.040-0.044 0.061-0.064 0.55-0.554 1.303-0.869 2.089-0.869 0.001 0 0.003 0 0.005 0 0.051 0.001 0.101 0.002 0.151 0.005 0.016 0.001 0.032 0.002 0.048 0.003 0.038 0.003 0.078 0.006 0.116 0.010 0.014 0.002 0.029 0.003 0.044 0.005 0.051 0.006 0.102 0.014 0.152 0.022 0.001 0 0.002 0 0.003 0 0.054 0.010 0.108 0.021 0.162 0.035 0.463 0.11 0.895 0.332 1.259 0.65 0.101 0.115 0.539 0.601 1.106 1.104 0.382 0.338 0.746 0.615 1.081 0.824 0.211 0.131 0.406 0.233 0.596 0.313 0.225 0.094 0.432 0.15 0.633 0.172 0.018 0.002 0.035 0.003 0.053 0.003 0.242 0 0.445-0.182 0.472-0.423 0.014-0.126-0.022-0.25-0.101-0.349s-0.192-0.161-0.319-0.175c-0.106-0.011-0.235-0.048-0.373-0.106-0.238-0.098-0.522-0.268-0.823-0.49-0.447-0.33-0.868-0.727-1.142-1.003-0.156-0.156-0.282-0.291-0.36-0.376-0.042-0.046-0.076-0.083-0.098-0.108l-0.025-0.029-0.142 0.126 0.136-0.134-0.012-0.014-0.016-0.017-0.014-0.013c-0.29-0.259-0.615-0.472-0.967-0.634 0.024-0.261 0.083-0.513 0.171-0.75 0.003-0.008 0.006-0.014 0.009-0.022 0.012-0.032 0.025-0.064 0.038-0.095 0.005-0.012 0.011-0.024 0.016-0.036 0.012-0.026 0.023-0.053 0.035-0.078 0.008-0.016 0.016-0.031 0.023-0.047 0.011-0.022 0.022-0.044 0.033-0.067 0.009-0.017 0.020-0.034 0.029-0.052 0.010-0.019 0.021-0.038 0.032-0.058s0.023-0.038 0.034-0.057c0.010-0.017 0.020-0.034 0.031-0.050 0.013-0.021 0.027-0.041 0.041-0.062 0.010-0.014 0.020-0.029 0.030-0.043 0.016-0.022 0.032-0.045 0.049-0.067 0.009-0.011 0.017-0.023 0.025-0.034 0.020-0.025 0.040-0.051 0.060-0.075 0.007-0.008 0.013-0.016 0.019-0.024 0.025-0.029 0.049-0.056 0.074-0.084 0.003-0.003 0.007-0.007 0.010-0.011 0.029-0.032 0.058-0.063 0.089-0.093 0.034-0.034 0.069-0.067 0.105-0.1 0.010-0.009 0.021-0.018 0.032-0.027 0.025-0.022 0.050-0.044 0.076-0.066 0.024-0.020 0.049-0.039 0.075-0.058 0.012-0.009 0.024-0.019 0.036-0.028 0.034-0.026 0.070-0.050 0.106-0.075 0.003-0.002 0.005-0.004 0.008-0.005 0.156-0.106 0.323-0.197 0.499-0.271 0.084-0.036 0.172-0.068 0.26-0.095 0.004-0.002 0.007-0.003 0.011-0.004 0.038-0.011 0.076-0.022 0.114-0.033 0.009-0.002 0.018-0.005 0.028-0.007 0.033-0.009 0.066-0.015 0.099-0.023 0.015-0.003 0.029-0.007 0.044-0.010 0.029-0.006 0.057-0.010 0.087-0.015 0.019-0.003 0.039-0.007 0.059-0.010 0.026-0.004 0.052-0.006 0.078-0.010 0.023-0.003 0.045-0.006 0.068-0.009 0.026-0.002 0.054-0.004 0.080-0.006 0.022-0.002 0.044-0.004 0.067-0.005 0.043-0.002 0.086-0.003 0.13-0.003 0.006 0 0.013 0 0.019 0 0.007 0 0.014 0 0.022 0.001 0.042 0 0.085 0.001 0.128 0.003 0.023 0.001 0.046 0.003 0.068 0.005 0.026 0.002 0.053 0.003 0.079 0.006 0.023 0.003 0.046 0.006 0.070 0.009 0.025 0.003 0.051 0.006 0.076 0.010 0.020 0.003 0.040 0.007 0.060 0.011 0.029 0.005 0.057 0.009 0.086 0.015 0.015 0.003 0.030 0.007 0.045 0.010 0.033 0.007 0.066 0.014 0.099 0.022 0.009 0.003 0.018 0.005 0.028 0.007 0.039 0.010 0.076 0.021 0.114 0.033 0.004 0.001 0.007 0.002 0.011 0.004 0.089 0.027 0.175 0.060 0.261 0.095 0.175 0.075 0.342 0.165 0.499 0.271 0.002 0.001 0.003 0.002 0.006 0.004 0.036 0.025 0.072 0.050 0.108 0.077 0.012 0.008 0.022 0.017 0.034 0.026 0.025 0.020 0.051 0.040 0.076 0.060s0.048 0.041 0.072 0.063c0.011 0.010 0.023 0.019 0.035 0.030 0.035 0.033 0.071 0.066 0.105 0.1s0.068 0.070 0.101 0.106c0.014 0.015 0.027 0.031 0.040 0.046 0.018 0.020 0.036 0.040 0.052 0.060 0.182 0.221 0.331 0.469 0.443 0.736 0.002 0.003 0.003 0.006 0.005 0.009 0.145 0.352 0.222 0.732 0.222 1.124v10.493h-0zM30.477 19.924c-0.001 0.016-0.003 0.032-0.004 0.048-0.002 0.034-0.004 0.067-0.007 0.101-0.002 0.017-0.004 0.033-0.006 0.049-0.004 0.032-0.007 0.066-0.013 0.098-0.002 0.014-0.005 0.028-0.007 0.041-0.006 0.035-0.012 0.070-0.019 0.105-0.002 0.009-0.004 0.018-0.006 0.028-0.008 0.039-0.017 0.078-0.027 0.117-0.001 0.003-0.002 0.007-0.003 0.011-0.036 0.138-0.081 0.271-0.136 0.4-0.093 0.219-0.212 0.425-0.353 0.614-0.006 0.009-0.014 0.018-0.021 0.027-0.021 0.028-0.043 0.056-0.066 0.083-0.018 0.023-0.038 0.045-0.057 0.067-0.011 0.013-0.023 0.027-0.035 0.040-0.032 0.036-0.066 0.071-0.099 0.104l-0.001 0.001c-0.005 0.005-0.010 0.009-0.016 0.014-0.029 0.029-0.059 0.057-0.088 0.084-0.016 0.014-0.032 0.028-0.047 0.041-0.020 0.018-0.040 0.035-0.060 0.052-0.027 0.022-0.056 0.044-0.084 0.066-0.009 0.006-0.017 0.013-0.026 0.020-0.037 0.027-0.074 0.054-0.112 0.080-0.001 0-0.001 0.001-0.001 0.001-0.156 0.105-0.322 0.196-0.497 0.271-0.13 0.055-0.265 0.101-0.405 0.137-0.001 0.001-0.002 0.001-0.003 0.001-0.043 0.011-0.086 0.021-0.129 0.030-0.005 0.001-0.010 0.002-0.014 0.004-0.041 0.009-0.083 0.015-0.124 0.022-0.007 0.001-0.014 0.002-0.021 0.003-0.041 0.006-0.083 0.012-0.125 0.016-0.007 0.001-0.014 0.002-0.021 0.002-0.045 0.005-0.091 0.009-0.137 0.011-0.003 0.001-0.007 0.001-0.010 0.001-0.050 0.002-0.1 0.004-0.15 0.004-0.001 0-0.001 0-0.001 0-0.003 0-0.005 0-0.008 0-0.051 0-0.089 0-0.117-0.001-0.036-0.001-0.052-0.002-0.078-0.006-0.022-0.003-0.051-0.009-0.091-0.016-0.025-0.030-0.051-0.060-0.078-0.090-0.090-0.101-0.219-0.16-0.355-0.16-0.116 0-0.228 0.043-0.315 0.12-0.196 0.174-0.214 0.475-0.040 0.67 0.161 0.182 0.298 0.38 0.408 0.591 0.001 0.001 0.001 0.002 0.002 0.003 0.027 0.052 0.052 0.103 0.075 0.155 0.002 0.004 0.004 0.009 0.006 0.013 0.023 0.051 0.044 0.103 0.064 0.154 0.001 0.001 0.001 0.002 0.001 0.002 0.003 0.010 0.007 0.020 0.010 0.031 0.011 0.032 0.023 0.064 0.034 0.096v0.001c0.096 0.295 0.144 0.603 0.144 0.91-0 0.787-0.317 1.541-0.871 2.092-0.037 0.037-0.076 0.073-0.116 0.109-0.034 0.030-0.068 0.059-0.103 0.088-0.523 0.423-1.175 0.656-1.85 0.656-0.049 0-0.098-0.002-0.148-0.004-0.020-0.001-0.039-0.003-0.059-0.004-0.029-0.002-0.059-0.004-0.088-0.007-0.024-0.003-0.047-0.006-0.070-0.009-0.025-0.003-0.051-0.007-0.076-0.010-0.024-0.004-0.048-0.008-0.072-0.013-0.025-0.005-0.051-0.009-0.075-0.014-0.023-0.005-0.046-0.010-0.068-0.015-0.028-0.007-0.056-0.013-0.084-0.021-0.019-0.005-0.038-0.010-0.056-0.015-0.036-0.010-0.071-0.021-0.106-0.032-0.011-0.004-0.022-0.007-0.033-0.011-0.052-0.017-0.105-0.037-0.156-0.058 0.091-0.335 0.138-0.68 0.138-1.028-0.001-0.378-0.065-0.777-0.188-1.153-0.21-0.642-0.575-1.193-1.054-1.592-0.273-0.228-0.582-0.405-0.917-0.526-0.359-0.129-0.75-0.194-1.164-0.194-0.262 0-0.475 0.213-0.475 0.475s0.213 0.474 0.474 0.474c0.398 0.001 0.759 0.081 1.074 0.238 0.408 0.204 0.746 0.547 0.979 0.992 0.205 0.391 0.322 0.859 0.322 1.287 0 0.462-0.107 0.908-0.307 1.31-0.002 0.004-0.005 0.008-0.007 0.012-0.105 0.208-0.233 0.402-0.381 0.577-0.008 0.009-0.015 0.017-0.023 0.026-0.046 0.054-0.094 0.107-0.144 0.157-0.001 0-0.001 0-0.001 0v0c-0.006 0.006-0.011 0.010-0.017 0.016-0.029 0.028-0.057 0.056-0.087 0.083-0.016 0.015-0.033 0.029-0.050 0.044-0.019 0.017-0.037 0.033-0.057 0.049-0.029 0.024-0.059 0.046-0.088 0.069-0.008 0.006-0.015 0.012-0.022 0.017-0.189 0.141-0.395 0.26-0.614 0.353-0.087 0.037-0.176 0.069-0.267 0.098-0.001 0.001-0.002 0.001-0.003 0.001-0.039 0.012-0.079 0.024-0.12 0.034-0.007 0.002-0.015 0.005-0.022 0.006-0.035 0.009-0.069 0.016-0.103 0.024-0.014 0.003-0.027 0.006-0.041 0.009-0.030 0.006-0.060 0.010-0.089 0.016-0.019 0.003-0.038 0.007-0.057 0.009-0.027 0.005-0.053 0.007-0.080 0.010-0.022 0.003-0.044 0.006-0.067 0.008-0.027 0.003-0.054 0.005-0.081 0.006-0.022 0.002-0.044 0.004-0.066 0.005-0.043 0.002-0.086 0.003-0.13 0.003-0.006 0-0.013 0.001-0.019 0.001-0.008 0-0.014-0.001-0.022-0.001-0.043 0-0.086-0.001-0.128-0.003-0.022-0.001-0.045-0.003-0.068-0.005-0.026-0.002-0.053-0.003-0.079-0.006-0.023-0.002-0.046-0.006-0.068-0.008-0.026-0.003-0.052-0.006-0.078-0.010-0.020-0.002-0.039-0.006-0.059-0.010-0.029-0.005-0.058-0.010-0.087-0.016-0.014-0.003-0.028-0.007-0.043-0.010-0.034-0.008-0.068-0.015-0.101-0.024-0.009-0.002-0.017-0.005-0.025-0.007-0.040-0.010-0.079-0.021-0.118-0.033-0.002-0.001-0.004-0.001-0.006-0.002-0.091-0.028-0.179-0.060-0.265-0.097-0.219-0.093-0.425-0.211-0.614-0.353-0.008-0.006-0.016-0.013-0.024-0.018-0.029-0.022-0.058-0.044-0.086-0.068-0.021-0.018-0.042-0.036-0.063-0.054-0.014-0.013-0.030-0.025-0.044-0.038-0.036-0.032-0.071-0.066-0.105-0.099s-0.068-0.069-0.101-0.106c-0.019-0.021-0.037-0.043-0.056-0.064-0.012-0.014-0.025-0.029-0.037-0.043-0.182-0.221-0.331-0.469-0.443-0.736-0.002-0.003-0.003-0.006-0.005-0.009-0.145-0.352-0.221-0.732-0.221-1.124v-11.765c0.607 0.023 1.137 0.093 1.577 0.208 0.421 0.109 0.762 0.257 1.040 0.452 0.209 0.146 0.379 0.315 0.52 0.518 0.203 0.291 0.348 0.655 0.469 1.181 0.040 0.173 0.075 0.348 0.111 0.533 0.034 0.171 0.069 0.349 0.108 0.524 0.076 0.334 0.153 0.585 0.249 0.818 0.092 0.222 0.198 0.415 0.326 0.589 0.217 0.299 0.498 0.542 0.835 0.721 0.36 0.192 0.782 0.317 1.291 0.383 0.021 0.003 0.041 0.005 0.062 0.005 0.237 0 0.439-0.178 0.47-0.415 0.017-0.125-0.017-0.251-0.095-0.35s-0.19-0.164-0.315-0.181c-0.456-0.059-0.811-0.173-1.083-0.348-0.198-0.128-0.349-0.283-0.475-0.488-0.098-0.161-0.179-0.355-0.25-0.595-0.076-0.254-0.132-0.537-0.19-0.835-0.034-0.172-0.069-0.35-0.11-0.53-0.072-0.317-0.18-0.734-0.38-1.139-0.152-0.307-0.345-0.579-0.573-0.809-0.387-0.391-0.904-0.688-1.536-0.884-0.573-0.176-1.245-0.277-2.051-0.304v-3.428h2.754c0.262 0 0.475-0.214 0.475-0.475s-0.213-0.475-0.475-0.475h-2.754v-4.699c0-0.392 0.076-0.772 0.221-1.124 0.002-0.003 0.004-0.006 0.005-0.009 0.111-0.268 0.261-0.516 0.443-0.736 0.010-0.012 0.020-0.023 0.030-0.034 0.021-0.024 0.041-0.049 0.063-0.073 0.025-0.028 0.051-0.055 0.078-0.082 0.007-0.007 0.014-0.015 0.022-0.024 0.034-0.034 0.070-0.068 0.105-0.1 0.010-0.009 0.021-0.018 0.031-0.027 0.025-0.022 0.051-0.044 0.076-0.066 0.025-0.020 0.049-0.039 0.075-0.058 0.012-0.009 0.024-0.019 0.036-0.028 0.035-0.026 0.070-0.050 0.106-0.075 0.003-0.002 0.005-0.004 0.007-0.005 0.157-0.106 0.324-0.197 0.499-0.271 0.085-0.036 0.172-0.068 0.261-0.095 0.004-0.002 0.008-0.003 0.012-0.004 0.037-0.011 0.075-0.022 0.114-0.033 0.009-0.002 0.018-0.005 0.028-0.007 0.033-0.009 0.067-0.015 0.1-0.023 0.014-0.003 0.029-0.007 0.044-0.010 0.029-0.006 0.059-0.010 0.087-0.015 0.020-0.003 0.039-0.007 0.059-0.010 0.026-0.004 0.052-0.006 0.078-0.010 0.022-0.003 0.045-0.006 0.068-0.009 0.026-0.002 0.053-0.004 0.080-0.006 0.022-0.002 0.044-0.004 0.067-0.005 0.043-0.002 0.087-0.003 0.13-0.003 0.006 0 0.013 0 0.019 0s0.014 0 0.022 0.001c0.043 0 0.085 0.001 0.127 0.003 0.023 0.001 0.046 0.003 0.069 0.005 0.027 0.002 0.053 0.003 0.079 0.006 0.023 0.003 0.047 0.006 0.070 0.009 0.025 0.003 0.051 0.006 0.076 0.010 0.021 0.003 0.040 0.007 0.060 0.011 0.028 0.005 0.057 0.009 0.085 0.015 0.016 0.003 0.031 0.007 0.045 0.010 0.033 0.007 0.066 0.014 0.099 0.022 0.010 0.003 0.019 0.005 0.028 0.007 0.038 0.010 0.076 0.021 0.114 0.033 0.003 0.001 0.008 0.002 0.011 0.004 0.089 0.027 0.176 0.060 0.261 0.095 0.176 0.075 0.343 0.165 0.5 0.271 0.002 0.001 0.003 0.002 0.005 0.004 0.037 0.025 0.073 0.050 0.109 0.077 0.011 0.008 0.022 0.017 0.033 0.026 0.026 0.020 0.052 0.040 0.076 0.060s0.049 0.041 0.073 0.063c0.012 0.010 0.024 0.019 0.035 0.030 0.036 0.033 0.071 0.066 0.105 0.1 0.030 0.030 0.060 0.062 0.089 0.093 0.001 0.001 0.001 0.001 0.001 0.002 0.028 0.030 0.056 0.062 0.082 0.094 0.006 0.007 0.011 0.014 0.016 0.020 0.022 0.026 0.043 0.052 0.064 0.079 0.009 0.011 0.016 0.023 0.025 0.034 0.017 0.022 0.033 0.045 0.049 0.068 0.010 0.014 0.020 0.029 0.030 0.044 0.014 0.020 0.028 0.040 0.041 0.061 0.011 0.017 0.021 0.034 0.032 0.051 0.011 0.018 0.023 0.037 0.034 0.056s0.022 0.038 0.033 0.059c0.010 0.017 0.020 0.034 0.029 0.051 0.011 0.022 0.022 0.045 0.034 0.068 0.007 0.015 0.015 0.030 0.022 0.045 0.012 0.026 0.024 0.052 0.035 0.079 0.005 0.011 0.011 0.023 0.016 0.036 0.013 0.031 0.026 0.063 0.039 0.095 0.002 0.008 0.005 0.014 0.008 0.021 0.088 0.237 0.146 0.489 0.171 0.751-0.352 0.161-0.677 0.374-0.967 0.633-0.195 0.175-0.212 0.476-0.038 0.671 0.090 0.101 0.219 0.159 0.354 0.159 0.117 0 0.229-0.043 0.316-0.121 0.366-0.327 0.803-0.554 1.272-0.666 0.108-0.025 0.216-0.045 0.325-0.059 0.013-0.002 0.025-0.003 0.038-0.004 0.040-0.005 0.081-0.009 0.122-0.011 0.014-0.001 0.030-0.002 0.045-0.003 0.051-0.002 0.102-0.005 0.153-0.005 0.002 0 0.003 0 0.005 0 0.786 0.001 1.539 0.315 2.089 0.869 0.037 0.037 0.073 0.075 0.109 0.115 0.029 0.033 0.058 0.067 0.086 0.1 0.026 0.032 0.051 0.064 0.075 0.097 0.002 0.002 0.003 0.004 0.005 0.006 0.022 0.030 0.044 0.061 0.065 0.092 0.003 0.005 0.008 0.010 0.011 0.015 0.019 0.028 0.036 0.055 0.053 0.083 0.006 0.009 0.012 0.018 0.018 0.028 0.014 0.023 0.028 0.048 0.042 0.072 0.008 0.014 0.016 0.028 0.024 0.041 0.011 0.019 0.021 0.040 0.031 0.060 0.010 0.018 0.020 0.038 0.029 0.057 0.007 0.016 0.015 0.032 0.022 0.047 0.010 0.024 0.022 0.047 0.032 0.071 0.006 0.013 0.011 0.026 0.017 0.040 0.011 0.026 0.022 0.053 0.032 0.079 0.005 0.013 0.009 0.025 0.014 0.038 0.010 0.027 0.019 0.054 0.028 0.082 0.004 0.013 0.007 0.025 0.011 0.038 0.009 0.028 0.017 0.055 0.025 0.083 0.004 0.015 0.008 0.030 0.012 0.045 0.007 0.025 0.013 0.051 0.019 0.076 0.005 0.021 0.009 0.042 0.013 0.063 0.004 0.020 0.008 0.039 0.012 0.059 0.005 0.031 0.010 0.062 0.014 0.093 0.002 0.010 0.003 0.021 0.005 0.031 0.017 0.127 0.026 0.256 0.026 0.388 0 0.060-0.002 0.121-0.006 0.182-0.001 0.013-0.002 0.026-0.002 0.040-0.005 0.057-0.010 0.115-0.018 0.174-0.002 0.013-0.004 0.026-0.006 0.040-0.007 0.048-0.015 0.096-0.025 0.144-0.003 0.016-0.006 0.031-0.009 0.047-0.012 0.053-0.025 0.107-0.039 0.16-0.005 0.020-0.011 0.040-0.017 0.060-0.014 0.047-0.028 0.094-0.044 0.14-0.006 0.019-0.014 0.039-0.020 0.059-0.016 0.045-0.033 0.089-0.051 0.132-0.007 0.018-0.015 0.037-0.023 0.055-0.022 0.052-0.046 0.105-0.072 0.157-0.007 0.014-0.014 0.027-0.022 0.042-0.025 0.050-0.053 0.101-0.081 0.15-0.071 0.123-0.149 0.242-0.237 0.357-0.012 0.013-0.022 0.028-0.032 0.042-0.088 0.112-0.18 0.217-0.273 0.311-0.171 0.173-0.413 0.35-0.699 0.512-0.427 0.243-0.893 0.422-1.208 0.529-0.18 0.061-0.33 0.106-0.424 0.133-0.051 0.014-0.091 0.025-0.119 0.032l-0.037 0.009c-0.254 0.062-0.411 0.319-0.35 0.573 0.052 0.214 0.241 0.363 0.461 0.363 0.038 0 0.076-0.005 0.113-0.013 0.050-0.012 0.507-0.126 1.082-0.353 0.349-0.138 0.669-0.289 0.951-0.449 0.371-0.21 0.666-0.43 0.904-0.67 0.075-0.075 0.149-0.156 0.22-0.239 0.072 0.001 0.145 0.006 0.218 0.012 0.003 0.001 0.006 0.002 0.010 0.002 0.038 0.003 0.064 0.006 0.080 0.007 0.001 0.001 0.002 0.001 0.003 0.001 0.005 0 0.009 0.001 0.010 0.001h0.001c0.015 0.002 0.031 0.005 0.046 0.007 0.026 0.004 0.053 0.007 0.080 0.012 0.494 0.085 0.954 0.302 1.332 0.626 0.004 0.003 0.007 0.007 0.011 0.010 0.024 0.020 0.047 0.041 0.070 0.063 0.008 0.008 0.017 0.015 0.025 0.022 0.017 0.017 0.034 0.034 0.052 0.052 0.013 0.012 0.025 0.024 0.037 0.037 0.010 0.010 0.018 0.020 0.028 0.030 0.019 0.020 0.038 0.040 0.056 0.061v0.001c0.049 0.055 0.095 0.113 0.139 0.172 0.005 0.007 0.010 0.013 0.015 0.020 0.016 0.022 0.032 0.046 0.048 0.068 0.008 0.011 0.016 0.022 0.023 0.034 0.013 0.020 0.026 0.040 0.039 0.061 0.009 0.015 0.018 0.029 0.028 0.044 0.011 0.018 0.021 0.037 0.032 0.055 0.010 0.018 0.021 0.036 0.031 0.053 0.009 0.016 0.016 0.032 0.025 0.048 0.010 0.021 0.022 0.041 0.032 0.063 0.006 0.013 0.012 0.027 0.018 0.041 0.011 0.024 0.023 0.048 0.033 0.072 0.005 0.011 0.009 0.022 0.014 0.033 0.011 0.028 0.022 0.055 0.033 0.083 0.003 0.008 0.006 0.017 0.009 0.025 0.011 0.030 0.022 0.061 0.032 0.092 0.002 0.006 0.004 0.013 0.006 0.019 0.011 0.033 0.021 0.066 0.031 0.099 0.001 0.005 0.002 0.010 0.003 0.015 0.010 0.035 0.019 0.070 0.027 0.105 0.001 0.005 0.002 0.009 0.003 0.014 0.008 0.036 0.016 0.072 0.022 0.108 0.001 0.006 0.002 0.012 0.003 0.018 0.006 0.034 0.012 0.069 0.017 0.105 0.001 0.009 0.002 0.018 0.004 0.027 0.004 0.032 0.007 0.064 0.011 0.097 0.001 0.015 0.002 0.031 0.003 0.046 0.002 0.027 0.005 0.052 0.006 0.078 0.002 0.042 0.003 0.084 0.003 0.126 0 0.057-0.002 0.114-0.006 0.172s-0.009 0.115-0.016 0.172c-0.001 0.002-0.001 0.004-0.001 0.006-0.005 0.044-0.012 0.087-0.020 0.13-0.001 0.007-0.003 0.013-0.004 0.020-0.007 0.040-0.015 0.080-0.024 0.119 0 0.002-0.001 0.003-0.001 0.005-0.114 0.495-0.364 0.95-0.718 1.313-0.003 0.003-0.006 0.006-0.010 0.010-0.027 0.028-0.055 0.055-0.084 0.082-0.007 0.006-0.014 0.013-0.021 0.019-0.065 0.059-0.132 0.115-0.203 0.169-0.3-0.073-0.607-0.11-0.913-0.11-0.886 0-1.753 0.306-2.441 0.861-0.203 0.164-0.236 0.464-0.071 0.668 0.091 0.113 0.225 0.177 0.37 0.177 0.108 0 0.214-0.037 0.298-0.105 0.527-0.426 1.166-0.651 1.845-0.651 0.225 0 0.448 0.025 0.664 0.076 0.083 0.064 0.187 0.101 0.294 0.101 0.013 0 0.026-0.001 0.040-0.002 0.123 0.044 0.24 0.095 0.348 0.151 0.002 0.001 0.005 0.002 0.006 0.003l0.002 0.001v0.001l0.001 0.001c0.108 0.056 0.211 0.119 0.311 0.187 0.009 0.006 0.019 0.012 0.028 0.018 0.005 0.003 0.010 0.008 0.015 0.011 0.317 0.227 0.588 0.515 0.795 0.847 0.036 0.057 0.069 0.116 0.101 0.176 0.006 0.011 0.011 0.024 0.017 0.036 0.025 0.049 0.049 0.098 0.072 0.147 0.003 0.009 0.007 0.018 0.010 0.026 0.023 0.055 0.045 0.109 0.066 0.164 0.002 0.005 0.003 0.010 0.005 0.014 0.021 0.059 0.041 0.118 0.058 0.179 0.001 0.004 0.001 0.007 0.002 0.010 0.017 0.062 0.033 0.124 0.046 0.186 0.001 0.007 0.002 0.014 0.004 0.022 0.012 0.059 0.023 0.118 0.031 0.178 0.003 0.021 0.005 0.043 0.007 0.064 0.006 0.046 0.011 0.092 0.014 0.138 0.005 0.068 0.007 0.138 0.007 0.207 0.001 0.051-0.001 0.101-0.003 0.15z"></path>
</svg>
