<!-- Generated by IcoMoon.io -->
<svg version="1.1" xmlns="http://www.w3.org/2000/svg" width="32" height="32" viewBox="0 0 32 32">
<path d="M28.5 26c0 0.133-0.053 0.26-0.146 0.354s-0.221 0.146-0.354 0.146h-24c-0.133 0-0.26-0.053-0.354-0.146s-0.146-0.221-0.146-0.354v-20c0-0.133 0.053-0.26 0.146-0.354s0.221-0.146 0.354-0.146c0.133 0 0.26 0.053 0.354 0.146s0.146 0.221 0.146 0.354v12.898l7.171-6.275c0.086-0.076 0.196-0.119 0.31-0.123s0.227 0.031 0.319 0.1l7.676 5.757 7.695-6.733c0.049-0.043 0.107-0.077 0.169-0.098s0.128-0.030 0.194-0.025c0.066 0.004 0.13 0.022 0.189 0.051s0.112 0.070 0.155 0.119c0.043 0.049 0.076 0.107 0.097 0.169s0.030 0.128 0.025 0.194c-0.004 0.066-0.022 0.13-0.051 0.188s-0.070 0.111-0.119 0.155l-8 7c-0.086 0.076-0.196 0.119-0.31 0.123s-0.227-0.031-0.319-0.1l-7.676-5.757-7.525 6.584v5.273h23.5c0.133 0 0.26 0.053 0.354 0.146s0.146 0.221 0.146 0.354z"></path>
</svg>
