<!-- Generated by IcoMoon.io -->
<svg version="1.1" xmlns="http://www.w3.org/2000/svg" width="32" height="32" viewBox="0 0 32 32">
<path d="M8.921 21.721c-0.375 0.375-0.375 0.983 0 1.358s0.983 0.375 1.358 0l-1.358-1.358zM16.679 16.679c0.375-0.375 0.375-0.983 0-1.358s-0.983-0.375-1.358 0l1.358 1.358zM15.321 15.321c-0.375 0.375-0.375 0.983 0 1.358s0.983 0.375 1.358 0l-1.358-1.358zM23.079 10.279c0.375-0.375 0.375-0.983 0-1.358s-0.983-0.375-1.358 0l1.358 1.358zM16.679 15.321c-0.375-0.375-0.983-0.375-1.358 0s-0.375 0.983 0 1.358l1.358-1.358zM21.721 23.079c0.375 0.375 0.983 0.375 1.358 0s0.375-0.983 0-1.358l-1.358 1.358zM15.321 16.679c0.375 0.375 0.983 0.375 1.358 0s0.375-0.983 0-1.358l-1.358 1.358zM10.279 8.921c-0.375-0.375-0.983-0.375-1.358 0s-0.375 0.983 0 1.358l1.358-1.358zM10.279 23.079l6.4-6.4-1.358-1.358-6.4 6.4 1.358 1.358zM16.679 16.679l6.4-6.4-1.358-1.358-6.4 6.4 1.358 1.358zM15.321 16.679l6.4 6.4 1.358-1.358-6.4-6.4-1.358 1.358zM16.679 15.321l-6.4-6.4-1.358 1.358 6.4 6.4 1.358-1.358z"></path>
</svg>
