<!-- Generated by IcoMoon.io -->
<svg version="1.1" xmlns="http://www.w3.org/2000/svg" width="32" height="32" viewBox="0 0 32 32">
<path d="M19 0c3.314 0 6 2.686 6 6h6c0.552 0 1 0.448 1 1s-0.448 1-1 1l-3-0.001v18.001c0 3.314-2.686 6-6 6h-12c-3.314 0-6-2.686-6-6v-18h-3c-0.552 0-1-0.448-1-1s0.448-1 1-1h6c0-3.314 2.686-6 6-6h6zM26 8h-20v18c0 2.142 1.684 3.891 3.8 3.995l0.2 0.005h12c2.142 0 3.891-1.684 3.995-3.8l0.005-0.2v-18zM13 14c0.552 0 1 0.448 1 1v7c0 0.552-0.448 1-1 1s-1-0.448-1-1v-7c0-0.552 0.448-1 1-1zM19 14c0.552 0 1 0.448 1 1v7c0 0.552-0.448 1-1 1s-1-0.448-1-1v-7c0-0.552 0.448-1 1-1zM19 2h-6c-2.142 0-3.891 1.684-3.995 3.8l-0.005 0.2h14c0-2.142-1.684-3.891-3.8-3.995l-0.2-0.005z"></path>
</svg>
