<!-- Generated by IcoMoon.io -->
<svg version="1.1" xmlns="http://www.w3.org/2000/svg" width="32" height="32" viewBox="0 0 32 32">
<path d="M10.858 9.941l-1.337-1.338 6.479-6.479 6.479 6.479-1.337 1.338-4.196-4.196v19.797h-1.891v-19.797l-4.196 4.196zM27.837 21.957v5.813c-0.002 0.057-0.026 0.111-0.066 0.151s-0.094 0.064-0.151 0.066h-23.267c-0.054-0.004-0.104-0.028-0.14-0.069s-0.054-0.093-0.051-0.147v-5.813h-1.891v5.813c-0.002 0.555 0.216 1.088 0.606 1.483s0.921 0.619 1.476 0.623h23.267c0.559-0 1.095-0.223 1.49-0.618s0.618-0.931 0.618-1.49v-5.812l-1.891 0.002z"></path>
</svg>
