<!-- Generated by IcoMoon.io -->
<svg version="1.1" xmlns="http://www.w3.org/2000/svg" width="32" height="32" viewBox="0 0 32 32">
<path d="M26.667 15.333c0-0.368 0.299-0.667 0.667-0.667s0.667 0.298 0.667 0.667v9.333c0 1.841-1.492 3.333-3.333 3.333h-17.352c-1.841 0-3.333-1.492-3.333-3.333v-17.333c0-1.841 1.492-3.333 3.333-3.333h9.352c0.368 0 0.667 0.298 0.667 0.667s-0.298 0.667-0.667 0.667h-9.352c-1.105 0-2 0.895-2 2v17.333c0 1.105 0.895 2 2 2h17.352c1.105 0 2-0.895 2-2v-9.333zM25.138 4.195l2.667 2.667c0.26 0.26 0.26 0.682 0 0.943l-10.667 10.667c-0.125 0.125-0.295 0.195-0.471 0.195h-2.667c-0.368 0-0.667-0.298-0.667-0.667v-2.667c0-0.177 0.070-0.346 0.195-0.471l10.667-10.667c0.26-0.26 0.682-0.26 0.943 0zM24.667 5.609l-10 10v1.724h1.724l10-10-1.724-1.724z"></path>
</svg>
