<!-- Generated by IcoMoon.io -->
<svg version="1.1" xmlns="http://www.w3.org/2000/svg" width="32" height="32" viewBox="0 0 32 32">
<path d="M16 11c-2.761 0-5 2.239-5 5s2.239 5 5 5c2.761 0 5-2.239 5-5s-2.239-5-5-5zM13 16c0-1.657 1.343-3 3-3s3 1.343 3 3c0 1.657-1.343 3-3 3s-3-1.343-3-3z"></path>
<path d="M16 4.333c-6.019 0-10.073 3.606-12.426 6.662l-0.042 0.055c-0.532 0.691-1.022 1.328-1.355 2.080-0.356 0.806-0.51 1.684-0.51 2.869s0.154 2.063 0.51 2.869c0.333 0.753 0.823 1.389 1.355 2.080l0.042 0.055c2.353 3.057 6.407 6.663 12.426 6.663s10.073-3.606 12.426-6.663l0.042-0.055c0.532-0.691 1.022-1.328 1.355-2.080 0.356-0.806 0.51-1.684 0.51-2.869s-0.154-2.063-0.51-2.869c-0.333-0.753-0.823-1.389-1.355-2.080l-0.042-0.055c-2.353-3.057-6.407-6.662-12.426-6.662zM5.159 12.216c2.173-2.823 5.708-5.882 10.841-5.882s8.669 3.060 10.841 5.882c0.585 0.76 0.927 1.214 1.153 1.724 0.211 0.477 0.34 1.059 0.34 2.061s-0.129 1.584-0.34 2.061c-0.225 0.51-0.568 0.964-1.153 1.724-2.173 2.823-5.708 5.882-10.841 5.882s-8.668-3.060-10.841-5.882c-0.585-0.76-0.927-1.214-1.153-1.724-0.211-0.477-0.34-1.059-0.34-2.061s0.129-1.584 0.34-2.061c0.225-0.51 0.568-0.964 1.153-1.724z"></path>
</svg>
