<!-- Generated by IcoMoon.io -->
<svg version="1.1" xmlns="http://www.w3.org/2000/svg" width="32" height="32" viewBox="0 0 32 32">
<path fill="#02b0c2" d="M1.178 0.595c0.153-0.001 0.305-0.002 0.463-0.002 0.248 0.002 0.248 0.002 0.502 0.004 0.173 0 0.346 0 0.518-0 0.363 0 0.727 0.001 1.090 0.004 0.46 0.003 0.92 0.003 1.38 0.002 0.358-0 0.716 0 1.073 0.002 0.25 0.001 0.501 0.001 0.751 0 3.646 0.028 6.812 1.216 9.482 3.751 0.465-0.17 0.847-0.379 1.256-0.656 1.881-1.215 3.961-2.136 6.168-2.544 0.102-0.022 0.204-0.044 0.309-0.067 1.517-0.288 3.058-0.217 4.595-0.205 0.295 0.001 0.589 0.002 0.884 0.003 0.716 0.003 1.432 0.007 2.148 0.012 0.052 1.835 0.094 3.669 0.128 5.504 0.004 0.197 0.004 0.197 0.007 0.397 0.014 0.767 0.024 1.535 0.029 2.302 0.002 0.242 0.005 0.485 0.009 0.727 0.005 0.339 0.007 0.678 0.009 1.017 0.003 0.15 0.003 0.15 0.007 0.304-0.002 0.446-0.023 0.705-0.291 1.069-1.018 0.719-2.612 0.504-3.811 0.514-1.768 0.018-3.344 0.16-4.656 1.469-0.829 0.973-1.426 2.344-1.435 3.636-0.001 0.11-0.002 0.22-0.003 0.334-0.001 0.18-0.001 0.18-0.002 0.363-0.001 0.127-0.002 0.254-0.003 0.385-0.002 0.276-0.004 0.551-0.006 0.827-0.003 0.436-0.006 0.871-0.010 1.307-0.009 1.082-0.017 2.163-0.024 3.245-0.007 0.914-0.014 1.829-0.021 2.743-0.003 0.43-0.006 0.86-0.009 1.29-0.002 0.262-0.004 0.525-0.007 0.787-0.001 0.181-0.001 0.181-0.002 0.365-0.001 0.109-0.002 0.219-0.003 0.332-0.001 0.095-0.001 0.191-0.002 0.289-0.017 0.234-0.017 0.234-0.145 0.49-1.356 0.27-2.852 0.172-4.232 0.2-0.124 0.003-0.248 0.005-0.376 0.008-1.544 0.033-3.088 0.060-4.632 0.064-0.142 0.001-0.284 0.001-0.43 0.002-0.127-0-0.253-0.001-0.384-0.001-0.108-0-0.217-0-0.328-0-0.242-0.017-0.242-0.017-0.37-0.145-0.014-0.176-0.018-0.353-0.019-0.529-0.001-0.114-0.002-0.228-0.003-0.346-0.001-0.126-0.001-0.252-0.002-0.382-0.002-0.198-0.002-0.198-0.003-0.401-0.002-0.288-0.004-0.577-0.006-0.865-0.003-0.458-0.006-0.915-0.010-1.372-0.008-0.974-0.014-1.947-0.021-2.921-0.008-1.123-0.016-2.246-0.025-3.369-0.003-0.449-0.006-0.897-0.009-1.346 0.165-2.32 0.165-2.32-0.455-4.429-0.587-0.505-0.953-0.584-1.731-0.585-0.087-0-0.174-0.001-0.263-0.001-0.188-0.001-0.376-0.001-0.564-0.001-0.297 0-0.595-0.002-0.892-0.004-0.846-0.006-1.691-0.009-2.537-0.010-0.518-0.001-1.035-0.004-1.553-0.008-0.197-0.001-0.394-0.002-0.592-0.001-0.276 0.001-0.551-0.001-0.826-0.004-0.235-0.001-0.235-0.001-0.475-0.001-0.383-0.065-0.383-0.065-0.625-0.25-0.218-0.505-0.195-0.986-0.191-1.531-0.001-0.122-0.001-0.244-0.002-0.369-0.002-0.403-0.001-0.805 0.001-1.208-0-0.28-0.001-0.559-0.001-0.839-0.001-0.586 0-1.172 0.002-1.758 0.002-0.752 0.001-1.504-0.001-2.255-0.001-0.577-0.001-1.155 0-1.732 0-0.277-0-0.555-0.001-0.832-0.001-0.387 0.001-0.774 0.003-1.161-0.001-0.115-0.002-0.23-0.002-0.349 0.001-0.105 0.002-0.211 0.003-0.319 0-0.137 0-0.137 0-0.277 0.13-0.648 0.597-0.674 1.174-0.673z"></path>
<path fill="#fcca3a" d="M1.178 0.595c0.153-0.001 0.305-0.002 0.463-0.002 0.248 0.002 0.248 0.002 0.502 0.004 0.173 0 0.346 0 0.518-0 0.363 0 0.727 0.001 1.090 0.004 0.46 0.003 0.92 0.003 1.38 0.002 0.358-0 0.716 0 1.073 0.002 0.25 0.001 0.501 0.001 0.751 0 3.833 0.030 6.835 1.411 9.738 3.879-0.592 0.624-0.592 0.624-1.024 0.768-0.155 0.256-0.155 0.256-0.256 0.512-0.085 0-0.169 0-0.256 0-0.031 0.072-0.062 0.145-0.095 0.22-0.191 0.346-0.424 0.591-0.697 0.876-0.85 0.931-1.554 1.866-1.768 3.128-0.085 0-0.169 0-0.256 0-0.013 0.095-0.026 0.19-0.040 0.288-0.088 0.352-0.088 0.352-0.27 0.577-0.797 1.131-0.881 3.040-1.098 4.383-0.545-0.101-0.686-0.335-1.024-0.768-0.449-0.303-0.855-0.288-1.387-0.289-0.087-0-0.174-0.001-0.263-0.001-0.188-0.001-0.376-0.001-0.564-0.001-0.297 0-0.595-0.002-0.892-0.004-0.846-0.006-1.691-0.009-2.537-0.010-0.518-0.001-1.035-0.004-1.553-0.008-0.197-0.001-0.394-0.002-0.592-0.001-0.276 0.001-0.551-0.001-0.826-0.004-0.235-0.001-0.235-0.001-0.475-0.001-0.383-0.065-0.383-0.065-0.625-0.25-0.218-0.505-0.195-0.986-0.191-1.531-0.001-0.122-0.001-0.244-0.002-0.369-0.002-0.403-0.001-0.805 0.001-1.208-0-0.28-0.001-0.559-0.001-0.839-0.001-0.586 0-1.172 0.002-1.758 0.002-0.752 0.001-1.504-0.001-2.255-0.001-0.577-0.001-1.155 0-1.732 0-0.277-0-0.555-0.001-0.832-0.001-0.387 0.001-0.774 0.003-1.161-0.001-0.115-0.002-0.23-0.002-0.349 0.001-0.105 0.002-0.211 0.003-0.319 0-0.137 0-0.137 0-0.277 0.13-0.648 0.597-0.674 1.174-0.673z"></path>
<path fill="#0162bb" d="M24.884 11.485c0.201 0.001 0.402 0.001 0.603 0.002 0.522 0.001 1.044 0.005 1.566 0.009 0.535 0.004 1.071 0.006 1.607 0.008 1.046 0.004 2.091 0.011 3.137 0.019 0 0.211 0 0.422 0 0.64-0.839 0.46-1.565 0.526-2.512 0.548-0.137 0.004-0.137 0.004-0.276 0.007-0.387 0.010-0.774 0.019-1.161 0.028-0.284 0.007-0.568 0.014-0.851 0.021-0.169 0.004-0.337 0.008-0.511 0.012-0.379 0.020-0.719 0.072-1.088 0.152-0.182-0.013-0.363-0.029-0.544-0.048-0.776-0.017-1.207 0.456-1.76 0.944-0.084 0.042-0.169 0.085-0.256 0.128 0.042-0.169 0.084-0.338 0.128-0.512-0.084 0.042-0.169 0.085-0.256 0.128-0.063 0.19-0.063 0.19-0.128 0.384-0.127 0-0.253 0-0.384 0-0.011 0.106-0.021 0.211-0.032 0.32-0.096 0.448-0.096 0.448-0.352 0.872-0.785 1.51-0.411 4.033-0.424 5.705-0.003 0.275-0.005 0.551-0.008 0.826-0.007 0.717-0.013 1.434-0.020 2.151-0.006 0.735-0.014 1.469-0.021 2.204-0.014 1.436-0.027 2.871-0.039 4.307-0.872 0.128-1.727 0.173-2.608 0.2-0.083 0.003-0.167 0.005-0.253 0.008-1.62 0.051-3.239 0.062-4.859 0.064-0.117 0-0.235 0.001-0.356 0.001-0.334 0.001-0.668 0.001-1.002 0-0.151 0-0.151 0-0.306 0.001-0.698-0.003-0.698-0.003-0.984-0.146-0.076-6.89-0.076-6.89 0.896-9.344 0.036-0.092 0.072-0.185 0.109-0.28 0.535-1.347 1.193-2.55 2.038-3.726 0.154-0.215 0.306-0.432 0.456-0.65 0.507-0.721 0.507-0.721 0.724-0.976 0.084 0 0.169 0 0.256 0 0.027-0.072 0.055-0.144 0.083-0.218 0.741-1.258 2.628-2.071 3.885-2.726 0.124-0.066 0.248-0.132 0.376-0.2 1.627-0.81 3.35-0.88 5.128-0.861z"></path>
<path fill="#198eb1" d="M28.765 0.883c0.295 0.001 0.589 0.002 0.884 0.003 0.716 0.003 1.432 0.007 2.148 0.012 0.103 3.67 0.146 7.336 0.128 11.008-0.042-0.127-0.084-0.253-0.128-0.384-1.152 0.008-2.304 0.018-3.455 0.030-0.535 0.006-1.070 0.011-1.605 0.014-0.518 0.003-1.036 0.009-1.554 0.015-0.196 0.002-0.392 0.004-0.588 0.004-1.763 0.008-3.448 0.172-5.046 0.984-0.103 0.050-0.205 0.101-0.311 0.153-2.207 1.072-2.207 1.072-3.825 2.767-0.084 0-0.169 0-0.256 0-0.036 0.075-0.071 0.15-0.108 0.228-0.14 0.268-0.292 0.496-0.473 0.738-0.886 1.205-1.627 2.403-2.235 3.77-0.037 0.081-0.073 0.162-0.111 0.245-1.085 2.424-1.193 4.892-1.186 7.505 0.001 0.295 0 0.591-0.001 0.886 0 0.189 0 0.377 0 0.566 0 0.169 0 0.338 0 0.511-0.011 0.386-0.011 0.386 0.145 0.654 3.337-0.084 6.674-0.169 10.112-0.256-0.001-0.871-0.003-1.742-0.004-2.64-0.001-0.556-0.001-1.112-0.002-1.668-0.001-0.88-0.002-1.76-0.003-2.64-0.001-0.71-0.002-1.421-0.002-2.131-0-0.269-0.001-0.539-0.001-0.808-0.003-1.25-0.002-2.5 0.058-3.75 0.012-0.249 0.012-0.249 0.024-0.503 0.090-0.696 0.364-1.253 0.699-1.861 0.063-0.19 0.063-0.19 0.128-0.384 0.127 0 0.253 0 0.384 0 0.011-0.077 0.021-0.153 0.032-0.232 0.122-0.356 0.297-0.463 0.608-0.664-0.084 0.253-0.169 0.507-0.256 0.768 0.086-0.079 0.086-0.079 0.174-0.159 0.84-0.749 0.84-0.749 1.362-0.865 0.19 0.127 0.19 0.127 0.384 0.256-0.083 0.045-0.167 0.090-0.253 0.136-1.446 0.817-2.22 1.915-2.699 3.519-0.152 0.627-0.158 1.237-0.159 1.879-0.002 0.191-0.002 0.191-0.003 0.385-0.003 0.417-0.005 0.834-0.006 1.251-0.002 0.291-0.004 0.581-0.007 0.872-0.006 0.763-0.010 1.526-0.014 2.289-0.007 1.224-0.015 2.448-0.024 3.671-0.003 0.428-0.005 0.856-0.007 1.284-0.002 0.261-0.003 0.521-0.005 0.782-0 0.12-0.001 0.239-0.001 0.362-0.001 0.109-0.002 0.217-0.003 0.33-0 0.095-0.001 0.189-0.001 0.287-0.017 0.233-0.017 0.233-0.145 0.489-1.356 0.27-2.852 0.172-4.232 0.2-0.124 0.003-0.248 0.005-0.376 0.008-1.544 0.033-3.088 0.060-4.632 0.064-0.142 0.001-0.284 0.001-0.43 0.002-0.127-0-0.253-0.001-0.384-0.001-0.108-0-0.217-0-0.328-0-0.242-0.017-0.242-0.017-0.37-0.145-0.014-0.201-0.019-0.402-0.020-0.603-0.001-0.13-0.002-0.261-0.004-0.395-0.001-0.217-0.001-0.217-0.002-0.437-0.001-0.151-0.003-0.302-0.004-0.458-0.003-0.415-0.006-0.831-0.009-1.246-0.003-0.434-0.006-0.867-0.010-1.301-0.006-0.822-0.012-1.644-0.018-2.466-0.006-0.935-0.013-1.871-0.020-2.806-0.015-1.925-0.028-3.85-0.041-5.774 0.084 0 0.169 0 0.256 0 0.013-0.135 0.025-0.27 0.038-0.409 0.096-0.954 0.216-1.893 0.45-2.823 0.038-0.151 0.076-0.302 0.115-0.458 0.19-0.466 0.43-0.716 0.805-1.046 0.030 0.611-0.087 1.079-0.256 1.664-0.074 0.333-0.144 0.665-0.208 1-0.017 0.089-0.034 0.178-0.051 0.27-0.11 0.61-0.158 1.191-0.126 1.812 0.001 0.246 0.001 0.246-0.127 0.63 0 0.263 0.001 0.526 0.004 0.789-0.005 0.427-0.036 0.849-0.068 1.275-0.070 0.978-0.077 1.948-0.064 2.928 0.315-0.674 0.584-1.327 0.768-2.048 0.084 0 0.169 0 0.256 0 0.063-0.253 0.063-0.253 0.128-0.512 0.084 0 0.169 0 0.256 0 0.032-0.143 0.063-0.285 0.096-0.432 0.16-0.464 0.16-0.464 0.432-0.648 0.079-0.024 0.158-0.048 0.24-0.072 0-0.127 0-0.253 0-0.384 0.161-0.383 0.369-0.709 0.64-1.024 0.19-0.063 0.19-0.063 0.384-0.128 0.22-0.448 0.22-0.448 0.384-0.896 0.127 0.042 0.253 0.084 0.384 0.128 0.042-0.084 0.084-0.169 0.128-0.256 0.128-0.128 0.256-0.256 0.384-0.384 0.127-0.19 0.127-0.19 0.256-0.384 0.17-0.046 0.34-0.089 0.512-0.128 0.042-0.084 0.084-0.169 0.128-0.256 0.169 0 0.338 0 0.512 0-0.042-0.169-0.084-0.338-0.128-0.512 0.119-0.016 0.238-0.032 0.36-0.048 0.426-0.056 0.426-0.056 0.792-0.336 0.169 0 0.338 0 0.512 0 0.029-0.082 0.058-0.164 0.088-0.248 0.168-0.264 0.168-0.264 0.464-0.352 0.114-0.013 0.227-0.026 0.344-0.040 0.213-0.043 0.427-0.085 0.64-0.128 0.063-0.19 0.063-0.19 0.128-0.384 0.084 0.042 0.169 0.084 0.256 0.128 0.249-0.028 0.497-0.056 0.745-0.091 0.804-0.107 1.622-0.129 2.431-0.173 0.102-0.006 0.205-0.011 0.31-0.017 2.252-0.124 4.499-0.13 6.754-0.103 0-0.084 0-0.169 0-0.256 0.084 0 0.169 0 0.256 0 0.003-0.949 0.005-1.899 0.007-2.848 0.001-0.441 0.002-0.882 0.003-1.323 0.015-2.717 0.015-2.717-0.138-5.429-0.118 0.014-0.118 0.014-0.239 0.028-1.135 0.12-2.264 0.106-3.404 0.087-1.11-0.017-2.186 0.003-3.27 0.268-0.042 0.042-0.084 0.084-0.128 0.128-0.226 0.032-0.453 0.061-0.68 0.088-1.038 0.163-1.908 0.613-2.776 1.192-0.169 0-0.338 0-0.512 0 0 0.084 0 0.169 0 0.256-0.084 0-0.169 0-0.256 0 0-0.084 0-0.169 0-0.256-0.211 0.088-0.422 0.177-0.631 0.268-0.174 0.076-0.349 0.149-0.525 0.219-0.645 0.279-0.962 0.615-1.357 1.191-0.229 0.316-0.504 0.522-0.815 0.753-0.311 0.297-0.594 0.575-0.84 0.928-0.223 0.271-0.365 0.275-0.696 0.352-0.042 0.127-0.084 0.253-0.128 0.384-0.169 0-0.338 0-0.512 0-0.032 0.092-0.063 0.185-0.096 0.28-0.24 0.539-0.609 0.998-1.056 1.384-0.084 0-0.169 0-0.256 0-0.042 0.127-0.084 0.253-0.128 0.384-0.042-0.084-0.084-0.169-0.128-0.256 0.577-0.915 1.168-1.738 1.908-2.528 0.234-0.252 0.452-0.509 0.668-0.776 0.306-0.362 0.634-0.622 1.033-0.877 0.255-0.178 0.255-0.178 0.525-0.476 0.371-0.36 0.76-0.627 1.202-0.888 0.083-0.049 0.166-0.098 0.252-0.149 1.75-1.008 3.569-1.71 5.548-2.115 0.109-0.024 0.218-0.048 0.33-0.073 1.508-0.287 3.046-0.211 4.574-0.199z"></path>
<path fill="#044f94" d="M24.884 11.485c0.201 0.001 0.402 0.001 0.603 0.002 0.522 0.001 1.044 0.005 1.566 0.009 0.535 0.004 1.071 0.006 1.607 0.008 1.046 0.004 2.091 0.011 3.137 0.019 0 0.211 0 0.422 0 0.64-0.839 0.46-1.565 0.526-2.512 0.548-0.137 0.004-0.137 0.004-0.276 0.007-0.387 0.010-0.774 0.019-1.161 0.028-0.284 0.007-0.568 0.014-0.851 0.021-0.169 0.004-0.337 0.008-0.511 0.012-0.379 0.020-0.719 0.072-1.088 0.152-0.182-0.013-0.363-0.029-0.544-0.048-0.776-0.017-1.207 0.456-1.76 0.944-0.084 0.042-0.169 0.085-0.256 0.128 0.045-0.090 0.090-0.179 0.136-0.272 0.141-0.432 0.094-0.698-0.008-1.136-0.991-0.056-1.938-0.019-2.736 0.632-0.343 0.269-0.557 0.341-0.968 0.464-1.48 0.507-2.667 1.761-3.72 2.872-0.116 0.114-0.232 0.227-0.352 0.344-1.15 1.182-1.883 2.66-2.592 4.136-0.048 0.096-0.096 0.193-0.145 0.292-0.278 0.583-0.382 0.975-0.367 1.628-0.062 0.077-0.123 0.154-0.186 0.233-0.244 0.345-0.256 0.572-0.278 0.991-0.023 0.4-0.049 0.698-0.176 1.080-0.011 0.378-0.015 0.752-0.012 1.13 0 0.11 0 0.221 0.001 0.334 0.001 0.352 0.002 0.704 0.004 1.056 0.001 0.239 0.001 0.478 0.002 0.716 0.001 0.585 0.004 1.171 0.006 1.756 0.114-0.006 0.114-0.006 0.23-0.013 2.261-0.124 2.261-0.124 3.218-0.115 0.853 0.008 1.7-0.037 2.551-0.082 0.912-0.046 1.821-0.054 2.734-0.041 0.246 0.003 0.493-0 0.739-0.005 0.252-0.252 0.213-0.685 0.256-1.024 0.042 0 0.084 0 0.128 0 0 0.465 0 0.929 0 1.408-0.865 0.151-1.731 0.173-2.608 0.2-0.083 0.003-0.167 0.005-0.253 0.008-1.62 0.051-3.239 0.062-4.859 0.064-0.117 0-0.235 0.001-0.356 0.001-0.334 0.001-0.668 0.001-1.002 0-0.151 0-0.151 0-0.306 0.001-0.698-0.003-0.698-0.003-0.984-0.146-0.076-6.89-0.076-6.89 0.896-9.344 0.036-0.092 0.072-0.185 0.109-0.28 0.535-1.347 1.193-2.55 2.038-3.726 0.154-0.215 0.306-0.432 0.456-0.65 0.507-0.721 0.507-0.721 0.724-0.976 0.084 0 0.169 0 0.256 0 0.027-0.072 0.055-0.144 0.083-0.218 0.741-1.258 2.628-2.071 3.885-2.726 0.124-0.066 0.248-0.132 0.376-0.2 1.627-0.81 3.35-0.88 5.128-0.861z"></path>
<path fill="#eba336" d="M15.285 5.251c0.127 0.063 0.127 0.063 0.256 0.128-0.398 0.553-0.809 1.076-1.272 1.576-0.809 0.9-1.467 1.824-1.672 3.032-0.084 0-0.169 0-0.256 0-0.013 0.095-0.026 0.19-0.040 0.288-0.088 0.352-0.088 0.352-0.269 0.576-0.797 1.131-0.881 3.040-1.099 4.384-0.545-0.101-0.686-0.335-1.024-0.768-0.449-0.302-0.861-0.291-1.393-0.297-0.087-0.001-0.175-0.003-0.265-0.004-0.288-0.004-0.576-0.006-0.864-0.008-0.2-0.002-0.4-0.005-0.6-0.008-0.526-0.007-1.052-0.012-1.578-0.016-0.537-0.005-1.074-0.012-1.611-0.018-1.053-0.012-2.107-0.023-3.16-0.033-0.042-0.296-0.084-0.591-0.128-0.896 0.246-0.012 0.246-0.012 0.496-0.024 0.219-0.011 0.437-0.022 0.656-0.032 0.107-0.005 0.215-0.010 0.325-0.015 0.481-0.024 0.951-0.056 1.429-0.123 0.808-0.108 1.625-0.090 2.438-0.093 0.166-0.003 0.331-0.005 0.502-0.008 1.337-0.005 2.677 0.068 3.754 0.936 0.085-0.042 0.169-0.084 0.256-0.128-0.006-0.086-0.012-0.171-0.018-0.26-0.046-1.211 0.222-2.292 0.53-3.452 0.085 0 0.169 0 0.256 0 0.035-0.094 0.069-0.187 0.105-0.284 0.329-0.776 0.868-1.524 1.431-2.148 0.085 0 0.169 0 0.256 0 0.035-0.076 0.069-0.151 0.105-0.23 0.504-0.94 1.526-1.606 2.455-2.074z"></path>
<path fill="#6a93b0" d="M11.829 10.883c0.142 0.425 0.113 0.551 0.005 0.973-0.043 0.173-0.043 0.173-0.087 0.35-0.031 0.12-0.062 0.241-0.094 0.365-0.060 0.236-0.12 0.473-0.179 0.709-0.040 0.157-0.040 0.157-0.082 0.318-0.219 1.038-0.219 2.057-0.213 3.114 0.002 0.294 0.002 0.587 0.003 0.881 0.002 0.73 0.005 1.46 0.008 2.189 0.003 0.617 0.005 1.234 0.006 1.851 0.001 0.286 0.002 0.571 0.004 0.857 0.004 1.030-0.033 2.046-0.11 3.074-0.036 0.519-0.048 1.034-0.046 1.553-0 0.093-0 0.187-0 0.283-0 0.192 0 0.385 0.001 0.577 0.001 0.295 0 0.591-0.001 0.886 0 0.189 0 0.377 0 0.566 0 0.169 0 0.338 0 0.511-0.011 0.386-0.011 0.386 0.145 0.654 3.337-0.084 6.674-0.169 10.112-0.256-0.001-0.871-0.003-1.742-0.004-2.64-0.001-0.556-0.001-1.112-0.002-1.668-0.001-0.88-0.002-1.76-0.003-2.64-0.001-0.71-0.002-1.421-0.002-2.131-0-0.269-0.001-0.539-0.001-0.808-0.003-1.25-0.002-2.5 0.058-3.75 0.008-0.166 0.016-0.332 0.024-0.503 0.090-0.696 0.364-1.253 0.699-1.861 0.063-0.19 0.063-0.19 0.128-0.384 0.127 0 0.253 0 0.384 0 0.011-0.077 0.021-0.153 0.032-0.232 0.122-0.356 0.297-0.463 0.608-0.664-0.084 0.253-0.169 0.507-0.256 0.768 0.057-0.052 0.115-0.105 0.174-0.159 0.84-0.749 0.84-0.749 1.362-0.865 0.127 0.084 0.253 0.169 0.384 0.256-0.083 0.045-0.167 0.090-0.253 0.136-1.446 0.817-2.22 1.915-2.699 3.519-0.152 0.627-0.158 1.237-0.159 1.879-0.002 0.191-0.002 0.191-0.003 0.385-0.003 0.417-0.005 0.834-0.006 1.251-0.002 0.291-0.004 0.581-0.007 0.872-0.006 0.763-0.010 1.526-0.014 2.289-0.007 1.224-0.015 2.448-0.024 3.671-0.003 0.428-0.005 0.856-0.007 1.284-0.002 0.261-0.003 0.521-0.005 0.782-0 0.12-0.001 0.239-0.001 0.362-0.001 0.109-0.002 0.217-0.003 0.329-0 0.095-0.001 0.189-0.001 0.287-0.017 0.233-0.017 0.233-0.145 0.489-1.356 0.27-2.852 0.172-4.232 0.2-0.124 0.003-0.248 0.005-0.376 0.008-1.544 0.033-3.088 0.060-4.632 0.064-0.142 0.001-0.284 0.001-0.43 0.002-0.127-0-0.253-0-0.384-0.001-0.108-0-0.217-0-0.328-0-0.242-0.017-0.242-0.017-0.37-0.145-0.014-0.201-0.019-0.402-0.020-0.603-0.001-0.13-0.002-0.261-0.004-0.395-0.001-0.217-0.001-0.217-0.002-0.437-0.001-0.151-0.003-0.302-0.004-0.458-0.003-0.415-0.006-0.831-0.009-1.246-0.003-0.434-0.006-0.867-0.010-1.301-0.006-0.822-0.012-1.644-0.018-2.466-0.006-0.935-0.013-1.871-0.020-2.806-0.015-1.925-0.028-3.85-0.041-5.774 0.084 0 0.169 0 0.256 0 0.013-0.135 0.025-0.27 0.038-0.409 0.281-2.79 0.281-2.79 0.858-3.943z"></path>
<path fill="#e3d36b" d="M1.178 0.595c0.153-0.001 0.305-0.002 0.463-0.002 0.248 0.002 0.248 0.002 0.502 0.004 0.173 0 0.346 0 0.518-0 0.363 0 0.727 0.001 1.090 0.004 0.46 0.003 0.92 0.003 1.38 0.002 0.358-0 0.716 0 1.073 0.002 0.25 0.001 0.501 0.001 0.751 0 3.833 0.030 6.835 1.411 9.738 3.879-0.592 0.624-0.592 0.624-1.024 0.768-0.155 0.256-0.155 0.256-0.256 0.512-0.085-0.042-0.169-0.084-0.256-0.128 0.084-0.169 0.169-0.338 0.256-0.512 0.127 0 0.253 0 0.384 0 0-0.085 0-0.169 0-0.256 0.084 0 0.169 0 0.256 0-0.283-0.554-0.6-0.83-1.112-1.176-0.231-0.157-0.459-0.318-0.68-0.488 0-0.084 0-0.169 0-0.256-0.135-0.013-0.269-0.026-0.408-0.040-0.473-0.085-0.748-0.184-1.128-0.472 0-0.084 0-0.169 0-0.256-0.082-0.011-0.164-0.021-0.248-0.032-0.345-0.084-0.583-0.187-0.896-0.344-1.389-0.629-2.995-0.556-4.491-0.545-0.167 0-0.334 0.001-0.505 0.001-0.615 0.001-1.229 0.005-1.844 0.008-1.378 0.005-2.756 0.011-4.176 0.016-0.042 4.182-0.084 8.364-0.128 12.672-0.432-0.432-0.432-0.432-0.433-0.904-0.002-0.158-0.002-0.158-0.003-0.32 0.001-0.115 0.002-0.231 0.002-0.349-0.001-0.122-0.001-0.244-0.002-0.369-0.002-0.403-0.001-0.807 0.001-1.21-0-0.28-0.001-0.56-0.001-0.839-0.001-0.587 0-1.173 0.002-1.76 0.002-0.753 0.001-1.506-0.001-2.259-0.001-0.578-0.001-1.156 0-1.733 0-0.278-0-0.555-0.001-0.833-0.001-0.388 0.001-0.775 0.003-1.163-0.001-0.173-0.001-0.173-0.002-0.349 0.001-0.106 0.002-0.211 0.003-0.32 0-0.092 0-0.183 0-0.278 0.129-0.648 0.597-0.674 1.174-0.674z"></path>
<path fill="#1eb6b7" d="M12.213 10.499c0.042 0 0.085 0 0.128 0 0.030 0.611-0.087 1.079-0.256 1.664-0.074 0.333-0.144 0.665-0.208 1-0.017 0.089-0.034 0.178-0.051 0.27-0.11 0.61-0.158 1.191-0.126 1.812 0.001 0.245 0.001 0.245-0.127 0.629 0 0.263 0.001 0.526 0.004 0.789-0.005 0.427-0.036 0.849-0.068 1.275-0.070 0.978-0.076 1.948-0.064 2.928 0.315-0.674 0.584-1.327 0.768-2.048 0.085 0 0.169 0 0.256 0 0.042-0.169 0.085-0.338 0.128-0.512 0.085 0 0.169 0 0.256 0 0.032-0.143 0.063-0.285 0.096-0.432 0.16-0.464 0.16-0.464 0.432-0.648 0.079-0.024 0.158-0.047 0.24-0.072 0-0.127 0-0.253 0-0.384 0.161-0.383 0.369-0.709 0.64-1.024 0.19-0.063 0.19-0.063 0.384-0.128 0.22-0.448 0.22-0.448 0.384-0.896 0.127 0.042 0.253 0.085 0.384 0.128 0.063-0.127 0.063-0.127 0.128-0.256 0.128-0.128 0.256-0.256 0.384-0.384 0.085-0.127 0.169-0.253 0.256-0.384 0.17-0.046 0.34-0.089 0.512-0.128 0.042-0.084 0.085-0.169 0.128-0.256 0.169 0 0.338 0 0.512 0-0.063-0.253-0.063-0.253-0.128-0.512 0.119-0.016 0.238-0.032 0.36-0.048 0.426-0.056 0.426-0.056 0.792-0.336 0.169 0 0.338 0 0.512 0 0.044-0.123 0.044-0.123 0.088-0.248 0.168-0.264 0.168-0.264 0.464-0.352 0.114-0.013 0.227-0.026 0.344-0.040 0.213-0.043 0.427-0.085 0.64-0.128 0.042-0.127 0.085-0.253 0.128-0.384 0.127 0.063 0.127 0.063 0.256 0.128 0.226-0.027 0.452-0.055 0.678-0.086 1.518-0.182 3.044-0.187 4.57-0.17 0 0.042 0 0.085 0 0.128-0.091 0.006-0.181 0.012-0.275 0.017-4.014 0.261-7.15 1.080-10.221 3.823-0.063 0.127-0.063 0.127-0.128 0.256-0.084 0-0.169 0-0.256 0-0.036 0.075-0.071 0.15-0.108 0.228-0.14 0.268-0.292 0.496-0.473 0.738-0.886 1.204-1.631 2.402-2.235 3.77-0.037 0.083-0.073 0.166-0.111 0.251-0.453 1.043-0.805 2.091-1.041 3.205-0.042 0-0.084 0-0.128 0-0.009-1.095-0.016-2.19-0.020-3.285-0.002-0.509-0.005-1.017-0.009-1.526-0.037-4.331-0.037-4.331 0.413-6.197 0.022-0.093 0.045-0.187 0.067-0.283 0.376-1.569 0.376-1.569 0.701-1.893z"></path>
<path fill="#cd8b31" d="M5.653 12.899c0.166-0.003 0.331-0.005 0.502-0.008 1.525-0.006 2.955 0.149 4.138 1.192 0.64 0.721 0.64 0.721 0.64 1.152-0.404-0.043-0.504-0.118-0.768-0.44-0.127-0.162-0.127-0.162-0.256-0.328-0.449-0.302-0.861-0.291-1.393-0.297-0.087-0.001-0.175-0.003-0.265-0.004-0.288-0.004-0.576-0.006-0.864-0.008-0.2-0.002-0.4-0.005-0.6-0.007-0.526-0.007-1.052-0.012-1.578-0.016-0.537-0.005-1.074-0.012-1.611-0.018-1.053-0.012-2.107-0.023-3.16-0.033-0.042-0.296-0.084-0.591-0.128-0.896 0.246-0.012 0.246-0.012 0.496-0.024 0.219-0.011 0.437-0.022 0.656-0.032 0.107-0.005 0.215-0.010 0.325-0.015 0.481-0.024 0.951-0.056 1.429-0.123 0.808-0.108 1.625-0.090 2.438-0.093z"></path>
<path fill="#22acac" d="M24.885 1.155c0.063 0.063 0.063 0.063 0.128 0.128 0.256 0.005 0.512 0.005 0.768 0-0.39 0.26-0.528 0.294-0.976 0.328-0.382 0.004-0.382 0.004-0.688 0.184-0.226 0.032-0.453 0.061-0.68 0.088-1.038 0.163-1.908 0.613-2.776 1.192-0.169 0-0.338 0-0.512 0 0 0.084 0 0.169 0 0.256-0.084 0-0.169 0-0.256 0 0-0.084 0-0.169 0-0.256-0.211 0.088-0.422 0.177-0.631 0.268-0.174 0.076-0.349 0.149-0.525 0.219-0.645 0.279-0.962 0.615-1.357 1.191-0.229 0.316-0.504 0.522-0.815 0.753-0.311 0.297-0.594 0.574-0.84 0.928-0.223 0.271-0.365 0.275-0.696 0.352-0.042 0.127-0.084 0.253-0.128 0.384-0.169 0-0.338 0-0.512 0-0.032 0.092-0.063 0.185-0.096 0.28-0.24 0.539-0.609 0.998-1.056 1.384-0.084 0-0.169 0-0.256 0-0.042 0.127-0.084 0.253-0.128 0.384-0.042-0.084-0.084-0.169-0.128-0.256 0.577-0.915 1.168-1.738 1.908-2.528 0.234-0.252 0.452-0.509 0.668-0.776 0.306-0.362 0.634-0.622 1.033-0.877 0.255-0.178 0.255-0.178 0.525-0.476 0.371-0.36 0.76-0.627 1.202-0.888 0.083-0.049 0.166-0.098 0.252-0.149 1.401-0.807 2.85-1.439 4.412-1.859 0.098-0.027 0.197-0.053 0.298-0.081 0.635-0.158 1.207-0.21 1.862-0.175z"></path>
<path fill="#f6d94d" d="M1.847 1.136c0.156-0.001 0.311-0.002 0.472-0.002 0.252-0 0.252-0 0.509-0 0.176-0 0.352-0.001 0.527-0.001 0.369-0.001 0.738-0.001 1.107-0.001 0.468 0 0.936-0.002 1.404-0.004 0.364-0.001 0.727-0.002 1.091-0.002 0.255-0 0.51-0.002 0.764-0.003 1.535 0.004 2.984 0.087 4.363 0.8 0.213 0.087 0.426 0.173 0.64 0.256-0.334 0.128-0.475 0.143-0.813 0.010-0.115-0.059-0.229-0.117-0.347-0.177-0.648-0.282-1.248-0.424-1.954-0.492-0.104-0.010-0.208-0.021-0.315-0.031-1.304-0.117-2.611-0.115-3.92-0.11-0.432 0.001-0.864 0-1.296-0.002-0.278 0-0.555 0-0.833 0.001-0.128-0-0.255-0.001-0.387-0.002-1.18-0.012-1.18-0.012-2.167 0.548-0.034 0.397-0.034 0.397-0.020 0.873 0.001 0.091 0.001 0.182 0.002 0.276 0.002 0.2 0.004 0.399 0.006 0.599 0.007 0.545 0.009 1.089 0.011 1.634 0 0.117 0.001 0.233 0.002 0.353 0.004 1.502-0.031 3.003-0.065 4.505-0.003 0.138-0.006 0.277-0.009 0.419-0.018 0.783-0.036 1.566-0.055 2.349 0.13-0.018 0.26-0.037 0.394-0.056 1.070-0.146 2.108-0.233 3.19-0.208 0.981 0.023 0.981 0.023 1.956-0.059 0.458-0.059 0.85-0.052 1.308-0.005 0.133 0.013 0.267 0.026 0.404 0.040 0.148 0.016 0.148 0.016 0.3 0.032 0 0.084 0 0.169 0 0.256 0.422 0.042 0.845 0.084 1.28 0.128 0 0.084 0 0.169 0 0.256 0.211 0.084 0.422 0.169 0.64 0.256 0-0.253 0-0.507 0-0.768 0.042 0 0.084 0 0.128 0 0.063 0.507 0.063 0.507 0.128 1.024-0.565 0-0.69-0.097-1.152-0.384-1.145-0.418-2.282-0.435-3.488-0.416-0.168 0.001-0.335 0.001-0.508 0.002-0.924 0.007-0.924 0.007-1.844 0.095-0.593 0.076-1.179 0.078-1.776 0.071-0.105-0.001-0.211-0.001-0.319-0.002-0.256-0.001-0.513-0.004-0.769-0.006-0.003-1.514-0.005-3.029-0.007-4.543-0.001-0.703-0.002-1.406-0.003-2.109-0.001-0.678-0.002-1.356-0.003-2.034-0-0.259-0.001-0.518-0.001-0.777-0.001-0.362-0.001-0.724-0.001-1.086-0-0.108-0.001-0.216-0.001-0.327 0.001-0.742 0.001-0.742 0.144-1.027 0.421-0.154 0.837-0.145 1.282-0.147z"></path>
<path fill="#86acdb" d="M24.589 12.851c0.098 0.026 0.195 0.053 0.296 0.080-0.25 0.189-0.5 0.376-0.759 0.553-1.322 0.927-1.975 2.228-2.313 3.799-0.012 0.185-0.019 0.371-0.020 0.557-0.001 0.111-0.002 0.221-0.004 0.335-0.001 0.12-0.001 0.24-0.002 0.364-0.001 0.127-0.003 0.255-0.004 0.386-0.004 0.421-0.007 0.842-0.010 1.263-0.003 0.292-0.005 0.584-0.008 0.876-0.007 0.769-0.013 1.537-0.020 2.305-0.006 0.784-0.014 1.568-0.021 2.353-0.014 1.539-0.027 3.077-0.039 4.616-0.127-0.042-0.253-0.084-0.384-0.128-0.003-1.565-0.005-3.129-0.007-4.694-0.001-0.727-0.002-1.453-0.003-2.18-0.001-0.703-0.002-1.406-0.002-2.109-0-0.267-0.001-0.533-0.001-0.8-0.003-1.242-0.002-2.483 0.058-3.724 0.012-0.25 0.012-0.25 0.024-0.504 0.090-0.696 0.364-1.253 0.699-1.862 0.042-0.127 0.084-0.253 0.128-0.384 0.127 0 0.253 0 0.384 0 0.011-0.077 0.021-0.153 0.032-0.232 0.122-0.356 0.297-0.463 0.608-0.664-0.084 0.253-0.169 0.507-0.256 0.768 0.060-0.052 0.12-0.105 0.183-0.159 0.080-0.069 0.159-0.138 0.241-0.209 0.118-0.102 0.118-0.102 0.239-0.207 0.554-0.458 0.554-0.458 0.961-0.401z"></path>
<path fill="#18579a" d="M11.189 23.939c0.042 0 0.084 0 0.128 0 0.176 2.087 0.14 4.179 0.128 6.272 0.246-0.014 0.246-0.014 0.497-0.028 2.008-0.109 2.008-0.109 2.951-0.1 0.853 0.008 1.7-0.037 2.551-0.083 0.912-0.046 1.821-0.054 2.734-0.041 0.246 0.003 0.493-0 0.739-0.005 0.252-0.252 0.213-0.685 0.256-1.024 0.042 0 0.084 0 0.128 0 0 0.465 0 0.929 0 1.408-0.865 0.151-1.731 0.173-2.608 0.2-0.083 0.003-0.167 0.005-0.253 0.008-1.62 0.051-3.239 0.062-4.859 0.064-0.176 0-0.176 0-0.356 0.001-0.334 0.001-0.668 0.001-1.003 0-0.101 0-0.202 0-0.306 0.001-0.698-0.003-0.698-0.003-0.984-0.146-0.003-0.603-0.006-1.206-0.007-1.809-0.001-0.204-0.002-0.408-0.003-0.613-0.007-1.327-0.014-2.659 0.138-3.979 0.042-0.042 0.084-0.085 0.128-0.128z"></path>
<path fill="#f5ecb7" d="M1.178 0.595c0.153-0.001 0.305-0.002 0.463-0.002 0.248 0.002 0.248 0.002 0.502 0.004 0.173 0 0.346 0 0.518-0 0.363 0 0.727 0.001 1.090 0.004 0.46 0.003 0.92 0.003 1.38 0.002 0.358-0 0.716 0 1.073 0.002 0.25 0.001 0.501 0.001 0.751 0 3.067 0.024 3.067 0.024 3.594 0.551-0.154-0.014-0.154-0.014-0.312-0.028-3.342-0.264-6.715-0.052-10.056 0.028 0 4.097 0 8.195 0 12.416-0.042 0-0.084 0-0.128 0-0.009-1.629-0.016-3.258-0.020-4.887-0.002-0.756-0.005-1.513-0.009-2.269-0.004-0.729-0.006-1.459-0.007-2.189-0.001-0.279-0.002-0.557-0.004-0.836-0.003-0.39-0.003-0.779-0.003-1.169-0.001-0.116-0.003-0.232-0.004-0.351 0.001-0.106 0.001-0.212 0.002-0.321-0-0.092-0.001-0.184-0.001-0.279 0.126-0.65 0.596-0.675 1.173-0.675z"></path>
<path fill="#096791" d="M23.63 11.508c0.133-0 0.133-0 0.269-0 0.291 0 0.582 0.001 0.873 0.002 0.203 0 0.405 0 0.608 0.001 0.532 0 1.063 0.002 1.595 0.003 0.543 0.001 1.086 0.002 1.629 0.003 1.064 0.001 2.129 0.004 3.193 0.006 0 0.211 0 0.422 0 0.64-0.833 0.456-1.554 0.526-2.495 0.548-0.135 0.004-0.135 0.004-0.273 0.007-0.286 0.007-0.571 0.014-0.857 0.021-1.648 0.035-1.648 0.035-3.288 0.192 0.596-0.398 1.070-0.403 1.782-0.42 0.128-0.004 0.128-0.004 0.258-0.007 0.272-0.008 0.543-0.014 0.815-0.021 0.357-0.009 0.714-0.018 1.070-0.028 0.158-0.004 0.317-0.008 0.48-0.012 0.458-0.024 0.901-0.081 1.354-0.152-0.549-0.042-1.098-0.084-1.664-0.128 0.169-0.127 0.338-0.253 0.512-0.384-1.098 0-2.196 0-3.328 0-0.042 0.127-0.084 0.253-0.128 0.384-0.084 0-0.169 0-0.256 0 0 0.084 0 0.169 0 0.256-0.211 0-0.422 0-0.64 0-0.063-0.253-0.063-0.253-0.128-0.512-2.27-0.065-2.27-0.065-4.48 0.384 0-0.084 0-0.169 0-0.256 0.219-0.062 0.437-0.123 0.656-0.184 0.122-0.034 0.244-0.068 0.369-0.104 0.699-0.176 1.352-0.24 2.072-0.239z"></path>
<path fill="#1eb6be" d="M26.037 11.267c0 0.042 0 0.084 0 0.128-0.091 0.006-0.182 0.011-0.275 0.017-4.014 0.261-7.15 1.080-10.221 3.823-0.042 0.084-0.084 0.169-0.128 0.256-0.084 0-0.169 0-0.256 0 0.104-0.44 0.104-0.44 0.256-0.896 0.127-0.042 0.253-0.084 0.384-0.128 0.091-0.158 0.091-0.158 0.184-0.32 0.2-0.32 0.2-0.32 0.472-0.408 0.079-0.013 0.158-0.026 0.24-0.040 0.042-0.084 0.084-0.169 0.128-0.256 0.169 0 0.338 0 0.512 0-0.042-0.169-0.084-0.338-0.128-0.512 0.119-0.016 0.238-0.032 0.36-0.048 0.426-0.056 0.426-0.056 0.792-0.336 0.169 0 0.338 0 0.512 0 0.044-0.123 0.044-0.123 0.088-0.248 0.168-0.264 0.168-0.264 0.464-0.352 0.114-0.013 0.227-0.026 0.344-0.040 0.213-0.043 0.427-0.085 0.64-0.128 0.042-0.127 0.084-0.253 0.128-0.384 0.084 0.042 0.169 0.084 0.256 0.128 0.226-0.027 0.452-0.055 0.677-0.086 1.518-0.182 3.044-0.187 4.571-0.17z"></path>
<path fill="#0fb5a9" d="M12.213 10.499c0.042 0 0.085 0 0.128 0 0.030 0.611-0.087 1.079-0.256 1.664-0.074 0.333-0.144 0.665-0.208 1-0.017 0.089-0.034 0.178-0.051 0.27-0.11 0.61-0.158 1.191-0.126 1.812 0.001 0.245 0.001 0.245-0.127 0.629 0 0.261 0.001 0.523 0.004 0.784-0.004 0.454-0.030 0.907-0.060 1.36-0.010 0.16-0.021 0.321-0.031 0.486-0.041 0.442-0.041 0.442-0.105 0.746-0.096 0.506-0.111 1.014-0.136 1.528-0.005 0.107-0.011 0.214-0.017 0.324-0.013 0.263-0.026 0.525-0.039 0.788-0.042 0-0.084 0-0.128 0-0.010-0.942-0.016-1.884-0.021-2.827-0.002-0.32-0.005-0.639-0.008-0.958-0.026-2.526 0.107-4.94 0.925-7.351 0.085-0.084 0.169-0.169 0.256-0.256z"></path>
<path fill="#074c85" d="M26.165 11.651c1.478 0 2.957 0 4.48 0 0 0.042 0 0.084 0 0.128-0.122 0.012-0.122 0.012-0.247 0.023-0.106 0.011-0.212 0.021-0.321 0.033-0.158 0.016-0.158 0.016-0.319 0.031-0.263 0.014-0.263 0.014-0.393 0.169 0.089 0.006 0.179 0.013 0.271 0.019 0.117 0.010 0.233 0.019 0.353 0.029 0.116 0.009 0.232 0.018 0.351 0.027 0.305 0.053 0.305 0.053 0.561 0.309-0.769 0.094-1.526 0.152-2.3 0.168-0.103 0.003-0.207 0.005-0.314 0.008-0.326 0.008-0.652 0.016-0.978 0.023-0.223 0.006-0.446 0.011-0.669 0.017-0.542 0.014-1.085 0.027-1.627 0.039 0.085-0.084 0.169-0.169 0.256-0.256 0.169 0 0.338 0 0.512 0 0-0.084 0-0.169 0-0.256 0.085 0 0.169 0 0.256 0 0.042-0.169 0.085-0.338 0.128-0.512z"></path>
<path fill="#77b6ca" d="M26.173 0.884c0.188 0 0.188 0 0.38 0 0.201 0.001 0.201 0.001 0.406 0.002 0.138 0 0.277 0 0.419 0.001 0.441 0.001 0.882 0.002 1.322 0.004 0.299 0.001 0.599 0.001 0.898 0.002 0.733 0.001 1.465 0.004 2.198 0.006 0.103 3.67 0.146 7.336 0.128 11.008-0.042-0.127-0.084-0.253-0.128-0.384-0.127-0.042-0.253-0.084-0.384-0.128 0.005-0.123 0.005-0.123 0.010-0.249 0.129-3.372 0.184-6.745 0.246-10.119-2.239 0.042-4.477 0.084-6.784 0.128 0-0.042 0-0.084 0-0.128 0.438-0.099 0.84-0.144 1.288-0.143z"></path>
<path fill="#976844" d="M10.165 13.955c0.768 0.827 0.768 0.827 0.768 1.28-0.404-0.043-0.504-0.118-0.768-0.44-0.127-0.162-0.127-0.162-0.256-0.328-0.444-0.297-0.844-0.291-1.369-0.297-0.085-0.001-0.17-0.003-0.258-0.004-0.28-0.004-0.56-0.006-0.839-0.008-0.194-0.002-0.389-0.005-0.583-0.007-0.511-0.007-1.022-0.012-1.533-0.016-0.522-0.005-1.043-0.012-1.565-0.018-1.023-0.012-2.046-0.023-3.069-0.033 0-0.042 0-0.084 0-0.128 0.081-0.003 0.163-0.006 0.246-0.010 0.371-0.015 0.742-0.031 1.114-0.046 0.128-0.005 0.256-0.010 0.388-0.015 0.125-0.005 0.249-0.011 0.377-0.016 0.171-0.007 0.171-0.007 0.345-0.014 0.351-0.021 0.351-0.021 0.714-0.090 0.449-0.072 0.884-0.091 1.339-0.104 0.088-0.003 0.175-0.005 0.266-0.008 0.278-0.008 0.556-0.016 0.835-0.023 0.186-0.006 0.372-0.011 0.559-0.017 2.567-0.075 2.567-0.075 3.289 0.345z"></path>
<path fill="#cbab53" d="M15.029 5.763c0 0.127 0 0.253 0 0.384-0.121 0.116-0.243 0.232-0.368 0.352-0.474 0.455-0.841 0.955-1.208 1.496-0.055 0.079-0.111 0.159-0.168 0.241-0.38 0.571-0.554 1.079-0.688 1.751-0.084 0-0.169 0-0.256 0-0.013 0.095-0.026 0.19-0.040 0.288-0.088 0.352-0.088 0.352-0.269 0.575-0.264 0.377-0.352 0.732-0.467 1.177-0.022 0.084-0.044 0.168-0.066 0.254-0.177 0.7-0.288 1.404-0.375 2.121-0.063 0.321-0.063 0.321-0.319 0.577-0.211-0.296-0.422-0.591-0.64-0.896 0.127-0.063 0.127-0.063 0.256-0.128 0.127 0.042 0.253 0.085 0.384 0.128 0.007-0.123 0.007-0.123 0.015-0.249 0.182-2.507 0.182-2.507 0.753-3.079 0.095-0.202 0.182-0.408 0.264-0.616 0.066-0.164 0.066-0.164 0.133-0.33 0.112-0.324 0.185-0.637 0.243-0.974 0.169 0 0.338 0 0.512 0 0.032-0.090 0.063-0.179 0.096-0.272 0.308-0.709 0.769-1.264 1.29-1.825 0.188-0.216 0.188-0.216 0.15-0.59 0.079-0.016 0.158-0.032 0.24-0.048 0.297-0.064 0.297-0.064 0.528-0.336z"></path>
<path fill="#16b8aa" d="M17.589 4.099c0.085 0.042 0.169 0.084 0.256 0.128-0.396 0.498-0.775 0.888-1.28 1.28-0.311 0.297-0.594 0.574-0.84 0.928-0.223 0.271-0.365 0.275-0.696 0.352-0.042 0.127-0.084 0.253-0.128 0.384-0.169 0-0.338 0-0.512 0-0.032 0.092-0.063 0.185-0.096 0.28-0.24 0.539-0.609 0.998-1.056 1.384-0.084 0-0.169 0-0.256 0-0.042 0.127-0.084 0.253-0.128 0.384-0.042-0.084-0.084-0.169-0.128-0.256 0.577-0.915 1.169-1.738 1.909-2.528 0.231-0.249 0.446-0.503 0.659-0.768 0.597-0.7 1.273-1.2 2.168-1.44 0.042-0.042 0.085-0.084 0.128-0.128z"></path>
<path fill="#055d84" d="M23.717 11.771c0.125 0.001 0.25 0.001 0.378 0.002 0.306 0.001 0.612 0.004 0.918 0.006 0 0.042 0 0.085 0 0.128-0.158 0.016-0.315 0.031-0.478 0.047-2.247 0.199-2.247 0.199-4.419 0.774-0.223 0.075-0.223 0.075-0.479 0.075 0 0.085 0 0.169 0 0.256-0.325 0.232-0.582 0.373-0.976 0.448-0.36 0.076-0.443 0.183-0.688 0.448-0.211 0.132-0.425 0.26-0.64 0.384-0.57 0.337-1.091 0.651-1.536 1.152-0.127-0.084-0.253-0.169-0.384-0.256 1.079-0.962 2.193-1.732 3.456-2.432 0.127-0.071 0.253-0.141 0.384-0.214 0.556-0.294 0.902-0.442 1.536-0.426 0.257-0.082 0.513-0.168 0.768-0.256 0.718-0.161 1.429-0.142 2.16-0.136z"></path>
<path fill="#055ca7" d="M17.077 14.723c0.084 0.042 0.169 0.084 0.256 0.128-0.085 0.074-0.17 0.148-0.258 0.225-0.731 0.636-0.731 0.636-1.382 1.351-0.28 0.344-0.574 0.581-0.92 0.856-0.934 1.071-1.564 2.437-2.176 3.712-0.048 0.096-0.096 0.193-0.145 0.292-0.278 0.583-0.382 0.975-0.367 1.628-0.093 0.115-0.093 0.115-0.187 0.232-0.246 0.348-0.251 0.577-0.269 1-0.029 0.661-0.029 0.661-0.312 0.944-0.037-1.071 0.044-2.052 0.384-3.072 0.127-0.063 0.127-0.063 0.256-0.128 0.088-0.271 0.088-0.271 0.144-0.584 0.021-0.106 0.043-0.212 0.065-0.321 0.015-0.082 0.031-0.163 0.047-0.247 0.084 0 0.169 0 0.256 0 0-0.169 0-0.338 0-0.512 0.084 0 0.169 0 0.256 0-0.011-0.084-0.021-0.169-0.032-0.256 0.045-0.539 0.284-0.94 0.544-1.408 0.084 0 0.169 0 0.256 0 0.084-0.211 0.169-0.422 0.256-0.64 0.084 0 0.169 0 0.256 0 0.059-0.119 0.059-0.119 0.12-0.24 0.088-0.176 0.176-0.352 0.264-0.528 0.084 0 0.169 0 0.256 0 0.042-0.127 0.084-0.253 0.128-0.384 0.095-0.074 0.19-0.148 0.288-0.224 0.306-0.25 0.459-0.425 0.672-0.744 0.27-0.398 0.524-0.606 0.96-0.824 0.127-0.084 0.253-0.169 0.384-0.256z"></path>
<path fill="#eeda8a" d="M10.165 1.155c2.175-0.213 4.378 1.545 5.976 2.848 0.185 0.159 0.37 0.318 0.552 0.48-0.592 0.624-0.592 0.624-1.024 0.768-0.155 0.256-0.155 0.256-0.256 0.512-0.127-0.063-0.127-0.063-0.256-0.128 0.085-0.169 0.169-0.338 0.256-0.512 0.127 0 0.253 0 0.384 0 0-0.084 0-0.169 0-0.256 0.085 0 0.169 0 0.256 0-0.283-0.554-0.6-0.83-1.112-1.176-0.231-0.157-0.459-0.318-0.68-0.488 0-0.084 0-0.169 0-0.256-0.135-0.013-0.269-0.026-0.408-0.040-0.473-0.085-0.748-0.184-1.128-0.472 0-0.084 0-0.169 0-0.256-0.082-0.011-0.164-0.021-0.248-0.032-0.354-0.087-0.632-0.199-0.96-0.352-0.451-0.208-0.854-0.333-1.352-0.384 0-0.084 0-0.169 0-0.256z"></path>
<path fill="#06608e" d="M15.157 15.491c0.084 0.042 0.169 0.084 0.256 0.128-0.033 0.559-0.077 0.834-0.44 1.272-0.328 0.264-0.328 0.264-0.584 0.264-0.040 0.079-0.079 0.158-0.12 0.24-0.088 0.176-0.176 0.352-0.264 0.528-0.085 0-0.169 0-0.256 0-0.016 0.1-0.032 0.201-0.048 0.304-0.080 0.336-0.080 0.336-0.336 0.592-0.085 0.127-0.169 0.253-0.256 0.384-0.085 0.127-0.169 0.253-0.256 0.384-0.049 0.212-0.093 0.425-0.128 0.64-0.085 0-0.169 0-0.256 0 0 0.169 0 0.338 0 0.512-0.085 0-0.169 0-0.256 0-0.042 0.38-0.085 0.76-0.128 1.152-0.19 0.063-0.19 0.063-0.384 0.128-0.016 0.117-0.031 0.234-0.047 0.355-0.021 0.152-0.043 0.304-0.065 0.461-0.021 0.151-0.042 0.303-0.063 0.459-0.081 0.389-0.081 0.389-0.337 0.645 0.1-3.148 2.171-6.021 3.968-8.448z"></path>
<path fill="#f8bd49" d="M7.341 12.603c0.146 0.013 0.293 0.026 0.444 0.039 0.11 0.011 0.219 0.021 0.332 0.033 0 0.084 0 0.169 0 0.256 0.634 0.063 0.634 0.063 1.28 0.128 0 0.084 0 0.169 0 0.256 0.211 0.084 0.422 0.169 0.64 0.256 0-0.253 0-0.507 0-0.768 0.042 0 0.084 0 0.128 0 0.063 0.507 0.063 0.507 0.128 1.024-0.565 0-0.69-0.097-1.152-0.384-1.145-0.418-2.282-0.435-3.488-0.416-0.168 0.001-0.335 0.001-0.508 0.002-0.97 0.005-0.97 0.005-1.934 0.095-0.566 0.075-1.116 0.077-1.686 0.071-0.105-0.001-0.211-0.001-0.319-0.002-0.256-0.001-0.513-0.004-0.769-0.006 0-0.085 0-0.169 0-0.256 1.375-0.207 2.714-0.281 4.105-0.258 0.945 0.014 1.859-0.158 2.799-0.070z"></path>
<path fill="#e8a737" d="M15.285 5.251c0.084 0.042 0.169 0.084 0.256 0.128-0.143 0.15-0.287 0.299-0.432 0.448-0.080 0.083-0.16 0.166-0.243 0.252-0.221 0.196-0.221 0.196-0.477 0.196-0.052 0.114-0.052 0.114-0.105 0.231-0.147 0.275-0.299 0.463-0.511 0.689-0.442 0.499-0.745 1.049-1.048 1.64-0.042-0.084-0.084-0.169-0.128-0.256-0.169 0-0.338 0-0.512 0-0.011 0.079-0.021 0.158-0.032 0.24-0.096 0.272-0.096 0.272-0.36 0.432-0.082 0.032-0.164 0.063-0.248 0.096 0.069-0.533 0.234-0.838 0.568-1.256 0.079-0.101 0.158-0.202 0.24-0.307 0.071-0.076 0.143-0.151 0.216-0.229 0.084 0 0.169 0 0.256 0 0.034-0.076 0.069-0.151 0.105-0.23 0.504-0.94 1.526-1.606 2.455-2.074z"></path>
<path fill="#529183" d="M11.829 10.883c0.142 0.425 0.113 0.551 0.005 0.973-0.043 0.173-0.043 0.173-0.087 0.35-0.031 0.12-0.062 0.241-0.094 0.365-0.060 0.236-0.12 0.473-0.179 0.709-0.040 0.157-0.040 0.157-0.082 0.318-0.219 1.038-0.219 2.057-0.213 3.114 0.002 0.294 0.003 0.587 0.003 0.881 0.002 0.73 0.005 1.46 0.008 2.189 0.003 0.617 0.005 1.234 0.006 1.851 0.001 0.286 0.002 0.571 0.004 0.857 0.004 1.171-0.045 2.329-0.139 3.497-0.042 0-0.084 0-0.128 0-0.001-0.115-0.003-0.23-0.004-0.349-0.013-1.083-0.026-2.166-0.039-3.249-0.007-0.557-0.014-1.114-0.020-1.671-0.006-0.537-0.013-1.074-0.020-1.611-0.003-0.205-0.005-0.411-0.007-0.616-0.003-0.287-0.007-0.573-0.011-0.86-0.002-0.163-0.004-0.327-0.006-0.495 0.021-0.352 0.021-0.352-0.148-0.493-0.009-0.237-0.011-0.475-0.008-0.712 0.001-0.13 0.002-0.259 0.003-0.393 0.002-0.1 0.003-0.2 0.005-0.303 0.084 0 0.169 0 0.256 0 0.013-0.135 0.025-0.27 0.038-0.409 0.281-2.79 0.281-2.79 0.858-3.943z"></path>
<path fill="#ba7133" d="M3.509 13.187c0.562-0.006 1.124-0.011 1.687-0.014 0.191-0.001 0.382-0.003 0.572-0.005 1.027-0.012 1.992-0.010 2.989 0.275-0.494 0.329-0.912 0.301-1.486 0.309-0.107 0.002-0.215 0.005-0.326 0.007-0.343 0.008-0.686 0.014-1.029 0.020-0.233 0.005-0.465 0.010-0.698 0.015-0.57 0.012-1.14 0.023-1.71 0.033 0-0.085 0-0.169 0-0.256 0.253-0.042 0.507-0.085 0.768-0.128-0.38-0.063-0.38-0.063-0.768-0.128 0-0.042 0-0.085 0-0.128z"></path>
<path fill="#1398c3" d="M31.285 9.219c0.317 0.475 0.286 0.731 0.28 1.296-0.001 0.161-0.002 0.323-0.002 0.489-0.022 0.391-0.022 0.391-0.15 0.519-0.232 0.012-0.464 0.015-0.696 0.015-0.223 0-0.223 0-0.45 0-0.243-0.001-0.243-0.001-0.49-0.002-0.165-0-0.329-0-0.499-0.001-0.438-0.001-0.877-0.002-1.315-0.003-0.447-0.001-0.894-0.002-1.341-0.003-0.878-0.001-1.755-0.004-2.633-0.006 0-0.042 0-0.084 0-0.128 0.142-0.008 0.284-0.015 0.43-0.023 0.187-0.011 0.375-0.022 0.562-0.033 0.093-0.005 0.187-0.010 0.283-0.015 0.504-0.023 0.504-0.023 0.996-0.122 0.437-0.094 0.874-0.078 1.319-0.075 0.148 0 0.148 0 0.299 0.001 0.314 0.001 0.629 0.002 0.943 0.004 0.214 0.001 0.427 0.001 0.641 0.002 0.522 0.001 1.045 0.004 1.567 0.006 0-0.084 0-0.169 0-0.256 0.085 0 0.169 0 0.256 0 0-0.549 0-1.098 0-1.664z"></path>
<path fill="#42658e" d="M31.797 11.651c0 0.169 0 0.338 0 0.512-0.833 0.456-1.554 0.526-2.494 0.548-0.135 0.004-0.135 0.004-0.273 0.007-0.286 0.007-0.571 0.014-0.857 0.021-1.648 0.035-1.648 0.035-3.288 0.192 0.597-0.398 1.070-0.403 1.783-0.42 0.085-0.002 0.17-0.005 0.258-0.007 0.272-0.008 0.543-0.014 0.815-0.021 0.357-0.009 0.714-0.018 1.071-0.028 0.158-0.004 0.317-0.008 0.48-0.012 0.458-0.024 0.901-0.081 1.354-0.152-0.549-0.042-1.098-0.084-1.664-0.128 0.578-0.433 0.578-0.433 1.048-0.472 0.149-0.012 0.149-0.012 0.301-0.025 0.49-0.023 0.977-0.023 1.467-0.015z"></path>
<path fill="#1fabb9" d="M12.725 18.819c0.128 0.256 0.128 0.256 0.057 0.482-0.060 0.135-0.060 0.135-0.122 0.273-0.044 0.1-0.088 0.201-0.133 0.304-0.048 0.107-0.096 0.215-0.145 0.325-0.379 0.87-0.708 1.724-0.963 2.64-0.093 0.302-0.206 0.563-0.357 0.84-0.020-1.371 0.041-2.728 0.128-4.096 0.042 0 0.084 0 0.128 0 0.042 0.422 0.084 0.845 0.128 1.28 0.053-0.145 0.106-0.29 0.16-0.44 0.224-0.456 0.224-0.456 0.504-0.576 0.077-0.003 0.153-0.005 0.232-0.008 0.016-0.098 0.032-0.195 0.048-0.296 0.080-0.344 0.080-0.344 0.336-0.728z"></path>
<path fill="#3bb4a6" d="M12.213 10.499c0.042 0 0.085 0 0.128 0 0.023 0.505 0.012 0.845-0.256 1.28-0.084 0-0.169 0-0.256 0-0.008 0.1-0.015 0.2-0.023 0.304-0.011 0.13-0.021 0.259-0.033 0.392-0.010 0.129-0.021 0.258-0.031 0.392-0.041 0.32-0.041 0.32-0.169 0.448-0.371 1.758-0.313 3.582-0.336 5.368-0.005 0.312-0.010 0.624-0.015 0.936-0.012 0.757-0.023 1.515-0.033 2.272-0.042 0-0.084 0-0.128 0-0.010-0.942-0.016-1.884-0.021-2.827-0.002-0.32-0.005-0.639-0.008-0.958-0.026-2.526 0.107-4.94 0.925-7.351 0.085-0.084 0.169-0.169 0.256-0.256z"></path>
<path fill="#17416e" d="M28.949 12.131c0.162-0.001 0.323-0.002 0.49-0.004 0.152 0.001 0.304 0.001 0.46 0.002 0.206 0 0.206 0 0.416 0.001 0.33 0.033 0.33 0.033 0.586 0.289-0.769 0.094-1.526 0.152-2.3 0.168-0.103 0.003-0.207 0.005-0.314 0.008-0.326 0.008-0.652 0.016-0.978 0.023-0.223 0.006-0.446 0.011-0.669 0.017-0.542 0.014-1.085 0.027-1.627 0.039 0.814-0.814 2.87-0.54 3.936-0.544z"></path>
<path fill="#748cae" d="M11.061 30.339c0.042 0.084 0.085 0.169 0.128 0.256 2.915 0 5.829 0 8.832 0 0 0.042 0 0.084 0 0.128-6.087 0.155-6.087 0.155-9.088 0.128 0.042-0.169 0.085-0.338 0.128-0.512z"></path>
<path fill="#09bea8" d="M14.389 7.171c0.127 0.042 0.253 0.084 0.384 0.128-0.127 0.19-0.127 0.19-0.256 0.384-0.042 0.090-0.084 0.18-0.128 0.272-0.128 0.24-0.128 0.24-0.384 0.368 0 0.169 0 0.338 0 0.512-0.256 0.224-0.256 0.224-0.512 0.384 0.084 0.084 0.169 0.169 0.256 0.256-0.078 0.012-0.155 0.023-0.235 0.036-0.346 0.115-0.422 0.244-0.613 0.548-0.157 0.249-0.157 0.249-0.304 0.44-0.084 0-0.169 0-0.256 0 0-0.169 0-0.338 0-0.512 0.084 0 0.169 0 0.256 0 0.011-0.116 0.021-0.232 0.032-0.352 0.108-0.47 0.234-0.633 0.608-0.928 0.084 0 0.169 0 0.256 0 0.048-0.139 0.048-0.139 0.096-0.28 0.174-0.392 0.397-0.672 0.672-1 0.042-0.084 0.084-0.169 0.128-0.256z"></path>
<path fill="#547998" d="M24.589 12.851c0.098 0.026 0.195 0.053 0.296 0.080-0.25 0.189-0.5 0.376-0.759 0.553-1.23 0.862-1.702 1.884-2.185 3.287-0.042 0-0.084 0-0.128 0 0.038-1.146 0.399-2.152 1.189-3.005 1.095-0.984 1.095-0.984 1.587-0.915z"></path>
<path fill="#61bfc4" d="M24.885 1.155c0.063 0.063 0.063 0.063 0.128 0.128 0.256 0.005 0.512 0.005 0.768 0-0.39 0.26-0.528 0.294-0.976 0.328-0.382 0.004-0.382 0.004-0.688 0.184-0.344 0.021-0.687 0.036-1.032 0.048-0.803 0.035-1.427 0.138-2.168 0.464-0.127-0.042-0.253-0.084-0.384-0.128 1.387-0.574 2.826-1.141 4.352-1.024z"></path>
<path fill="#b6b365" d="M15.029 5.763c0 0.127 0 0.253 0 0.384-0.182 0.174-0.182 0.174-0.368 0.352-0.474 0.455-0.841 0.955-1.208 1.496-0.055 0.079-0.111 0.159-0.168 0.241-0.38 0.571-0.554 1.079-0.688 1.751-0.085 0-0.169 0-0.256 0-0.016 0.103-0.032 0.206-0.048 0.312-0.040 0.162-0.040 0.162-0.080 0.328-0.127 0.063-0.127 0.063-0.256 0.128 0.1-1.535 1.136-2.941 2.163-4.031 0.179-0.205 0.179-0.205 0.141-0.577 0.079-0.016 0.158-0.032 0.24-0.048 0.296-0.064 0.296-0.064 0.528-0.336z"></path>
<path fill="#dacb86" d="M14.261 2.947c0.518 0.069 0.812 0.216 1.216 0.544 0.099 0.080 0.198 0.16 0.3 0.243 0.324 0.279 0.624 0.566 0.916 0.878-0.736 0.64-0.736 0.64-1.024 0.64-0.084 0.169-0.169 0.338-0.256 0.512-0.084-0.042-0.169-0.084-0.256-0.128 0.084-0.169 0.169-0.338 0.256-0.512 0.127 0 0.253 0 0.384 0 0-0.084 0-0.169 0-0.256 0.084 0 0.169 0 0.256 0-0.283-0.554-0.6-0.83-1.112-1.176-0.231-0.157-0.459-0.318-0.68-0.488 0-0.084 0-0.169 0-0.256z"></path>
<path fill="#176ca4" d="M23.093 13.059c0.042 0.085 0.085 0.169 0.128 0.256-0.15 0.295-0.306 0.578-0.472 0.864-0.517 0.922-0.822 1.815-1.064 2.848-0.042 0-0.084 0-0.128 0 0.003-0.116 0.005-0.232 0.008-0.352 0.014-0.393 0.014-0.393-0.091-0.653-0.065-0.399 0.083-0.628 0.259-0.987 0.175-0.361 0.337-0.699 0.464-1.080 0.127 0 0.253 0 0.384 0 0.013-0.077 0.026-0.153 0.040-0.232 0.099-0.316 0.225-0.449 0.472-0.664z"></path>
<path fill="#4da270" d="M15.157 5.763c0.085 0.042 0.169 0.084 0.256 0.128-0.071 0.082-0.143 0.164-0.216 0.248-0.241 0.319-0.421 0.61-0.608 0.96-0.276 0.511-0.578 0.921-0.968 1.352-0.071 0.079-0.143 0.158-0.216 0.24-0.168 0.144-0.168 0.144-0.424 0.144-0.042 0.127-0.084 0.253-0.128 0.384-0.042-0.084-0.084-0.169-0.128-0.256 0.584-0.926 1.183-1.755 1.935-2.552 0.26-0.271 0.26-0.271 0.497-0.647z"></path>
<path fill="#f8b842" d="M15.157 3.843c0.336 0.195 0.62 0.364 0.896 0.64 0 0.127 0 0.253 0 0.384-0.084 0-0.169 0-0.256 0 0 0.084 0 0.169 0 0.256-0.229 0.125-0.459 0.251-0.688 0.376-0.128 0.070-0.255 0.14-0.387 0.212-0.195 0.106-0.391 0.209-0.589 0.308 0.016-0.24 0.016-0.24 0.128-0.512 0.392-0.16 0.392-0.16 0.768-0.256-0.084-0.042-0.169-0.084-0.256-0.128 0.042-0.253 0.084-0.507 0.128-0.768 0.084 0 0.169 0 0.256 0 0-0.169 0-0.338 0-0.512z"></path>
<path fill="#75d0c3" d="M20.533 2.435c-0.384 0.256-0.384 0.256-0.768 0.256 0.042 0.127 0.084 0.253 0.128 0.384-0.119 0.048-0.238 0.095-0.36 0.144-1.185 0.502-1.185 0.502-2.2 1.264-0.336 0.016-0.336 0.016-0.64 0 0.426-0.473 0.897-0.771 1.44-1.088 0.085-0.050 0.171-0.101 0.259-0.153 1.656-0.969 1.656-0.969 2.141-0.807z"></path>
<path fill="#d69b35" d="M15.285 5.251c0.085 0.042 0.169 0.084 0.256 0.128-0.143 0.15-0.287 0.299-0.432 0.448-0.080 0.083-0.16 0.166-0.243 0.252-0.221 0.196-0.221 0.196-0.477 0.196-0.029 0.071-0.058 0.143-0.088 0.216-0.214 0.377-0.495 0.639-0.808 0.936-0.042-0.127-0.084-0.253-0.128-0.384-0.211 0.169-0.422 0.338-0.64 0.512 0.487-1.069 1.535-1.787 2.56-2.304z"></path>
<path fill="#816448" d="M8.355 13.793c0.219 0.001 0.219 0.001 0.442 0.002 0.145-0.001 0.289-0.001 0.438-0.002 0.52 0.042 0.893 0.117 1.26 0.502 0.078 0.117 0.078 0.117 0.158 0.236 0.054 0.078 0.107 0.156 0.162 0.236 0.118 0.212 0.118 0.212 0.118 0.468-0.404-0.043-0.504-0.118-0.768-0.44-0.084-0.108-0.169-0.217-0.256-0.328-0.439-0.289-0.859-0.305-1.376-0.336-0.225-0.014-0.225-0.014-0.454-0.029-0.114-0.006-0.228-0.013-0.346-0.019 0.256-0.256 0.256-0.256 0.622-0.29z"></path>
<path fill="#024c7f" d="M25.013 11.779c0 0.042 0 0.084 0 0.128-0.158 0.015-0.315 0.031-0.478 0.047-2.168 0.171-2.168 0.171-4.258 0.721 0.082-0.242 0.082-0.242 0.256-0.512 1.381-0.574 3.018-0.425 4.48-0.384z"></path>
<path fill="#c18041" d="M0.437 13.315c0.042 0.085 0.084 0.169 0.128 0.256 0.095-0.001 0.189-0.003 0.286-0.004 0.894-0.008 1.769 0.035 2.657 0.132 0 0.085 0 0.169 0 0.256-1.014 0.042-2.028 0.085-3.072 0.128-0.042-0.211-0.084-0.422-0.128-0.64 0.042-0.042 0.084-0.084 0.128-0.128z"></path>
<path fill="#074d8f" d="M24.333 11.891c0.135 0.002 0.135 0.002 0.272 0.003 0.221 0.003 0.443 0.008 0.664 0.013 0.134 0.401 0.12 0.511 0 0.896-0.234 0.024-0.234 0.024-0.472 0.048-0.432 0.053-0.795 0.15-1.192 0.336 0.042-0.127 0.084-0.253 0.128-0.384 0.456-0.216 0.456-0.216 0.896-0.384 0-0.127 0-0.253 0-0.384-0.084 0.021-0.169 0.042-0.256 0.064-0.478 0.080-0.924 0.072-1.408 0.064 0.471-0.314 0.825-0.285 1.368-0.272z"></path>
<path fill="#f1e24b" d="M2.079 1.142c0.096 0 0.192 0 0.291 0.001 0.305 0.001 0.61 0.002 0.915 0.004 0.207 0.001 0.415 0.001 0.622 0.002 0.507 0.001 1.015 0.004 1.522 0.006 0 0.042 0 0.084 0 0.128-0.073 0.003-0.145 0.006-0.22 0.010-0.709 0.032-1.418 0.065-2.127 0.101-0.208 0.010-0.415 0.020-0.623 0.029-0.229 0.010-0.457 0.023-0.686 0.036-0.186 0.009-0.186 0.009-0.377 0.019-0.367 0.070-0.554 0.201-0.832 0.445 0-0.211 0-0.422 0-0.64 0.498-0.163 0.997-0.144 1.514-0.141z"></path>
<path fill="#206ba5" d="M21.557 16.003c0.23 0.691 0.285 1.201 0.144 1.912-0.248 1.306-0.232 2.65-0.272 3.976-0.042 0-0.084 0-0.128 0-0.003-0.535-0.006-1.069-0.007-1.604-0.001-0.181-0.002-0.362-0.003-0.543-0.019-3.171-0.019-3.171 0.266-3.741z"></path>
<path fill="#2ab9bb" d="M18.101 13.059c0.084 0.042 0.169 0.085 0.256 0.128-0.096 0.062-0.192 0.124-0.291 0.188-1.516 0.877-1.516 0.877-2.653 2.116-0.084 0-0.169 0-0.256 0 0.104-0.44 0.104-0.44 0.256-0.896 0.127-0.042 0.253-0.084 0.384-0.128 0.084-0.127 0.169-0.253 0.256-0.384 0.106-0.034 0.211-0.069 0.32-0.104 0.541-0.183 0.972-0.464 1.45-0.773 0.092-0.048 0.183-0.097 0.278-0.147z"></path>
<path fill="#11beb4" d="M18.869 12.291c0.127 0.042 0.253 0.085 0.384 0.128-0.267 0.18-0.536 0.359-0.805 0.538-0.239 0.159-0.478 0.319-0.715 0.481-0.122 0.081-0.243 0.162-0.368 0.245-0.113 0.076-0.226 0.152-0.342 0.231-0.358 0.183-0.574 0.205-0.97 0.169 0.042-0.084 0.084-0.169 0.128-0.256 0.171-0.043 0.341-0.085 0.512-0.128 0.042-0.084 0.084-0.169 0.128-0.256 0.169 0 0.338 0 0.512 0-0.042-0.169-0.084-0.338-0.128-0.512 0.119-0.016 0.238-0.032 0.36-0.048 0.426-0.056 0.426-0.056 0.792-0.336 0.169 0 0.338 0 0.512 0 0-0.084 0-0.169 0-0.256z"></path>
<path fill="#0b5cad" d="M21.173 28.931c0.042 0 0.084 0 0.128 0 0 0.422 0 0.845 0 1.28-1.816 0-3.633 0-5.504 0 0-0.042 0-0.084 0-0.128 1.461-0.081 2.916-0.145 4.38-0.123 0.247 0.003 0.493-0 0.74-0.005 0.252-0.252 0.213-0.685 0.256-1.024z"></path>
<path fill="#b56d1c" d="M3.509 13.187c0.562-0.006 1.124-0.011 1.687-0.014 0.191-0.001 0.382-0.003 0.572-0.005 1.027-0.012 1.992-0.010 2.989 0.275-0.444 0.296-0.63 0.299-1.152 0.256-0.127-0.085-0.253-0.169-0.384-0.256-0.397-0.047-0.397-0.047-0.85-0.053-0.166-0.005-0.332-0.010-0.504-0.015-0.176-0.004-0.351-0.008-0.527-0.012-0.177-0.005-0.354-0.010-0.531-0.015-0.434-0.012-0.867-0.023-1.301-0.033 0-0.042 0-0.085 0-0.128z"></path>
<path fill="#095a9c" d="M22.581 12.291c0.238 0.012 0.475 0.032 0.712 0.056 0.194 0.020 0.194 0.020 0.392 0.040 0.15 0.016 0.15 0.016 0.304 0.032-0.108 0.611-0.203 0.909-0.72 1.272-0.143 0.087-0.285 0.174-0.432 0.264 0.045-0.090 0.090-0.179 0.136-0.272 0.141-0.432 0.094-0.698-0.008-1.136-0.169-0.042-0.338-0.084-0.512-0.128 0.042-0.042 0.084-0.084 0.128-0.128z"></path>
<path fill="#f3b34c" d="M7.733 12.675c0.127 0 0.253 0 0.384 0 0 0.084 0 0.169 0 0.256 0.422 0.042 0.845 0.084 1.28 0.128 0 0.084 0 0.169 0 0.256 0.317 0.127 0.317 0.127 0.64 0.256 0-0.253 0-0.507 0-0.768 0.042 0 0.084 0 0.128 0 0.042 0.338 0.084 0.676 0.128 1.024-0.568 0-0.685-0.1-1.152-0.384-0.267-0.081-0.536-0.153-0.808-0.216-0.137-0.032-0.274-0.064-0.414-0.098-0.103-0.023-0.207-0.047-0.314-0.070 0.042-0.127 0.084-0.253 0.128-0.384z"></path>
<path fill="#c1752a" d="M2.101 13.315c0.887 0 1.774 0 2.688 0-0.881 0.441-1.723 0.399-2.688 0.384 0-0.127 0-0.253 0-0.384z"></path>
<path fill="#39b390" d="M12.213 10.499c0.042 0 0.084 0 0.128 0 0.023 0.505 0.012 0.845-0.256 1.28-0.084 0-0.169 0-0.256 0-0.005 0.096-0.010 0.191-0.015 0.29-0.008 0.126-0.017 0.252-0.025 0.382-0.011 0.187-0.011 0.187-0.023 0.378-0.071 0.39-0.189 0.577-0.449 0.87 0.057-0.696 0.2-1.357 0.376-2.032 0.022-0.085 0.043-0.171 0.066-0.258 0.167-0.622 0.167-0.622 0.454-0.91z"></path>
<path fill="#0fb8ae" d="M19.381 3.075c0.127 0.042 0.253 0.084 0.384 0.128-0.352 0.414-0.811 0.639-1.28 0.896-0.168 0.096-0.336 0.192-0.504 0.288-0.129 0.074-0.259 0.148-0.392 0.224 0.078-0.388 0.186-0.593 0.516-0.816 0.202-0.11 0.406-0.218 0.611-0.321 0.305-0.148 0.305-0.148 0.665-0.398z"></path>
<path fill="#3da6bf" d="M11.445 21.507c0.084 0 0.169 0 0.256 0-0.159 0.729-0.328 1.453-0.512 2.176-0.042 0-0.084 0-0.128 0 0-0.591 0-1.183 0-1.792 0.084 0 0.169 0 0.256 0 0.042-0.127 0.084-0.253 0.128-0.384z"></path>
<path fill="#7499b5" d="M22.581 14.339c0.084 0.042 0.169 0.084 0.256 0.128-0.035 0.088-0.071 0.175-0.107 0.265-0.165 0.414-0.325 0.83-0.485 1.247-0.057 0.149-0.114 0.297-0.173 0.45-0.043 0.113-0.086 0.225-0.131 0.342-0.042 0-0.084 0-0.128 0 0.046-0.949 0.302-1.608 0.768-2.432z"></path>
<path fill="#42a781" d="M16.693 4.483c0.127 0.042 0.253 0.084 0.384 0.128-0.213 0.213-0.427 0.427-0.64 0.64-0.087 0.1-0.174 0.201-0.264 0.304-0.082 0.069-0.164 0.137-0.248 0.208-0.288-0.032-0.288-0.032-0.512-0.128 0.802-0.825 0.802-0.825 1.28-1.152z"></path>
<path fill="#3b587d" d="M31.009 11.766c0.262 0.004 0.525 0.008 0.787 0.012 0 0.127 0 0.253 0 0.384-0.384 0.256-0.384 0.256-0.792 0.208-0.119-0.026-0.238-0.053-0.36-0.080 0-0.505 0-0.505 0.365-0.524z"></path>
<path fill="#25b596" d="M13.237 8.707c0.042 0.084 0.084 0.169 0.128 0.256-0.123 0.216-0.253 0.429-0.384 0.64-0.137 0.296-0.26 0.595-0.384 0.896-0.084 0-0.169 0-0.256 0 0-0.169 0-0.338 0-0.512 0.084 0 0.169 0 0.256 0 0.011-0.116 0.021-0.232 0.032-0.352 0.108-0.467 0.247-0.625 0.608-0.928z"></path>
<path fill="#e39d2b" d="M12.469 7.555c0.084 0 0.169 0 0.256 0-0.131 0.283-0.263 0.521-0.456 0.768-0.2 0.242-0.2 0.242-0.24 0.528-0.072 0.24-0.072 0.24-0.336 0.4-0.082 0.032-0.164 0.063-0.248 0.096 0.069-0.533 0.234-0.838 0.568-1.256 0.079-0.101 0.158-0.202 0.24-0.306 0.107-0.114 0.107-0.114 0.216-0.23z"></path>
<path fill="#17b89f" d="M15.413 5.763c0.127 0 0.253 0 0.384 0-0.096 0.368-0.096 0.368-0.256 0.768-0.264 0.152-0.264 0.152-0.512 0.256-0.042 0.127-0.084 0.253-0.128 0.384-0.127-0.042-0.253-0.084-0.384-0.128 0.169-0.257 0.34-0.513 0.512-0.768 0.066-0.1 0.132-0.201 0.2-0.304 0.061-0.069 0.121-0.137 0.184-0.208z"></path>
<path fill="#39a97c" d="M14.133 7.427c0 0.576-0.349 0.842-0.72 1.256-0.176 0.152-0.176 0.152-0.432 0.152-0.042 0.127-0.084 0.253-0.128 0.384-0.042-0.084-0.084-0.169-0.128-0.256 0.382-0.642 0.824-1.074 1.408-1.536z"></path>
<path fill="#c89437" d="M15.285 5.251c0.084 0.042 0.169 0.084 0.256 0.128-0.757 0.858-0.757 0.858-1.336 1.016-0.108 0.003-0.217 0.005-0.328 0.008 0-0.084 0-0.169 0-0.256 0.299-0.226 0.299-0.226 0.688-0.472 0.128-0.082 0.255-0.165 0.387-0.25 0.11-0.058 0.22-0.115 0.333-0.175z"></path>
<path fill="#10b5b6" d="M12.597 18.307c0.084 0 0.169 0 0.256 0-0.084 0.556-0.261 1.033-0.512 1.536-0.127 0.042-0.253 0.084-0.384 0.128 0.084-0.38 0.169-0.76 0.256-1.152 0.084 0 0.169 0 0.256 0 0.042-0.169 0.084-0.338 0.128-0.512z"></path>
<path fill="#e1a741" d="M13.365 6.915c0.085 0.042 0.169 0.085 0.256 0.128-0.366 1.097-0.366 1.097-0.896 1.536 0-0.169 0-0.338 0-0.512 0.085-0.042 0.169-0.084 0.256-0.128-0.012-0.146-0.012-0.146-0.024-0.296 0.024-0.344 0.024-0.344 0.216-0.576 0.063-0.050 0.127-0.1 0.192-0.152z"></path>
<path fill="#c38f61" d="M0.565 13.699c0.972 0.042 1.943 0.084 2.944 0.128 0 0.042 0 0.084 0 0.128-1.014 0.042-2.028 0.084-3.072 0.128 0.042-0.127 0.084-0.253 0.128-0.384z"></path>
<path fill="#74a25f" d="M12.597 9.219c0.159 0.319 0.099 0.437 0 0.768-0.085 0-0.169 0-0.256 0-0.016 0.103-0.032 0.206-0.048 0.312-0.026 0.108-0.053 0.216-0.080 0.328-0.127 0.063-0.127 0.063-0.256 0.128 0.112-0.864 0.112-0.864 0.256-1.152 0.084 0 0.169 0 0.256 0 0.042-0.127 0.084-0.253 0.128-0.384z"></path>
<path fill="#13b9a4" d="M11.829 11.779c0.085 0 0.169 0 0.256 0-0.036 0.264-0.074 0.528-0.112 0.792-0.021 0.147-0.042 0.294-0.063 0.445-0.073 0.386-0.177 0.709-0.337 1.067-0.042 0-0.084 0-0.128 0-0.030-0.607 0.077-1.085 0.256-1.664 0.045-0.213 0.089-0.426 0.128-0.64z"></path>
<path fill="#aa672a" d="M7.221 13.315c0.184-0.007 0.368-0.012 0.552-0.016 0.102-0.003 0.205-0.006 0.311-0.009 0.289 0.025 0.289 0.025 0.673 0.281-0.184 0.032-0.368 0.061-0.552 0.088-0.102 0.016-0.205 0.033-0.31 0.050-0.29-0.010-0.29-0.010-0.519-0.199-0.051-0.064-0.102-0.128-0.155-0.195z"></path>
<path fill="#6687a3" d="M23.349 13.443c0.084 0.127 0.169 0.253 0.256 0.384-0.211 0.253-0.422 0.507-0.64 0.768-0.084-0.042-0.169-0.085-0.256-0.128 0.069-0.486 0.282-0.7 0.64-1.024z"></path>
<path fill="#10bab6" d="M14.133 16.003c0.163 0.326 0.103 0.439 0.008 0.784-0.025 0.093-0.050 0.185-0.075 0.281-0.030 0.106-0.030 0.106-0.061 0.215-0.169-0.085-0.338-0.169-0.512-0.256 0.042-0.085 0.085-0.169 0.128-0.256 0.040-0.085 0.079-0.169 0.12-0.256 0.136-0.256 0.136-0.256 0.392-0.512z"></path>
<path fill="#1b5384" d="M24.645 12.667c0.116 0.001 0.233 0.002 0.353 0.003 0.089 0.002 0.179 0.003 0.271 0.005-0.43 0.287-0.533 0.256-1.024 0.256-0.35 0.119-0.35 0.119-0.64 0.256 0.042-0.127 0.084-0.253 0.128-0.384 0.323-0.162 0.552-0.141 0.912-0.136z"></path>
<path fill="#f1be4e" d="M15.669 4.227c0.127 0.084 0.253 0.169 0.384 0.256 0 0.127 0 0.253 0 0.384-0.084 0-0.169 0-0.256 0 0 0.084 0 0.169 0 0.256-0.211 0.042-0.422 0.084-0.64 0.128 0.042-0.084 0.084-0.169 0.128-0.256 0.084 0 0.169 0 0.256 0 0.042-0.253 0.084-0.507 0.128-0.768z"></path>
<path fill="#4084b5" d="M21.557 16.003c0.144 0.432 0.216 0.827 0.256 1.28-0.084 0.127-0.169 0.253-0.256 0.384-0.151-0.303-0.145-0.495-0.144-0.832-0-0.102-0.001-0.203-0.001-0.308 0.017-0.268 0.017-0.268 0.145-0.524z"></path>
<path fill="#0abdb3" d="M16.565 5.251c0.256 0.128 0.256 0.128 0.256 0.128l-0.256-0.128zM16.181 5.379c0.127 0.042 0.253 0.084 0.384 0.128-0.299 0.299-0.597 0.597-0.896 0.896 0.064-0.472 0.141-0.717 0.512-1.024zM15.285 6.531c0.256 0.128 0.256 0.128 0.256 0.128l-0.256-0.128z"></path>
<path fill="#65c3b2" d="M17.973 3.971c-0.551 0.504-0.551 0.504-1 0.544-0.092-0.011-0.185-0.021-0.28-0.032 0.717-0.794 0.717-0.794 1.28-0.512z"></path>
<path fill="#0b76b5" d="M21.941 14.723c0.113 0.316 0.145 0.466 0.028 0.786-0.049 0.089-0.098 0.178-0.148 0.27-0.049 0.090-0.097 0.181-0.148 0.274-0.038 0.068-0.077 0.136-0.116 0.206-0.113-0.316-0.145-0.466-0.029-0.786 0.049-0.089 0.098-0.178 0.149-0.27 0.049-0.090 0.097-0.181 0.147-0.274 0.038-0.068 0.077-0.136 0.117-0.206z"></path>
<path fill="#baac69" d="M10.933 13.699c0.042 0 0.084 0 0.128 0 0.025 0.775 0.025 0.775 0 1.024-0.084 0.084-0.169 0.169-0.256 0.256-0.084-0.211-0.169-0.422-0.256-0.64 0.127-0.042 0.253-0.084 0.384-0.128 0-0.169 0-0.338 0-0.512z"></path>
<path fill="#29b391" d="M12.213 10.499c0.042 0 0.084 0 0.128 0 0.047 0.693 0.047 0.693-0.192 1.072-0.063 0.069-0.127 0.137-0.192 0.208-0.025-0.775-0.025-0.775 0-1.024 0.084-0.084 0.169-0.169 0.256-0.256z"></path>
<path fill="#fac443" d="M12.725 2.435c0.317 0.127 0.317 0.127 0.64 0.256-0.169 0.169-0.338 0.338-0.512 0.512-0.084-0.084-0.169-0.169-0.256-0.256 0.048-0.272 0.048-0.272 0.128-0.512z"></path>
<path fill="#f8ea46" d="M0.565 1.283c0.422 0 0.845 0 1.28 0 0 0.042 0 0.084 0 0.128-0.14 0.037-0.28 0.074-0.424 0.112-0.477 0.121-0.477 0.121-0.856 0.4 0-0.211 0-0.422 0-0.64z"></path>
<path fill="#f1c14c" d="M13.749 2.819c0.305 0.023 0.474 0.089 0.689 0.308 0.159 0.193 0.312 0.39 0.463 0.589-0.503-0.168-0.804-0.368-1.152-0.768 0-0.042 0-0.084 0-0.128z"></path>
<path fill="#587ba5" d="M21.005 30.395c0.103 0.013 0.207 0.026 0.314 0.039 0.079 0.011 0.157 0.021 0.238 0.033 0 0.042 0 0.084 0 0.128-0.184 0.028-0.368 0.055-0.552 0.080-0.102 0.015-0.205 0.030-0.31 0.045-0.29 0.003-0.29 0.003-0.674-0.253 0.396-0.132 0.579-0.125 0.984-0.072z"></path>
<path fill="#08bcaa" d="M12.341 10.499c0.084 0 0.169 0 0.256 0 0.042 0.253 0.084 0.507 0.128 0.768-0.317 0.19-0.317 0.19-0.64 0.384 0.084-0.38 0.169-0.76 0.256-1.152z"></path>
<path fill="#1e71a2" d="M22.325 14.083c0.127 0.042 0.253 0.084 0.384 0.128-0.169 0.338-0.338 0.676-0.512 1.024-0.042 0-0.084 0-0.128 0 0-0.211 0-0.422 0-0.64 0.084 0 0.169 0 0.256 0 0-0.169 0-0.338 0-0.512z"></path>
<path fill="#f7b645" d="M14.133 6.147c-0.296 0.211-0.591 0.422-0.896 0.64 0.042-0.211 0.084-0.422 0.128-0.64 0.384-0.128 0.384-0.128 0.768 0z"></path>
</svg>
