<!-- Generated by IcoMoon.io -->
<svg version="1.1" xmlns="http://www.w3.org/2000/svg" width="32" height="32" viewBox="0 0 32 32">
<path d="M16 24c3.682 0 6.667-2.985 6.667-6.667s-2.985-6.667-6.667-6.667c-3.682 0-6.667 2.985-6.667 6.667s2.985 6.667 6.667 6.667zM16 21.343c-2.214 0-4.009-1.795-4.009-4.009s1.795-4.009 4.009-4.009c2.214 0 4.009 1.795 4.009 4.009s-1.795 4.009-4.009 4.009z"></path>
<path d="M12.749 2.667c-1.835 0-3.435 1.249-3.881 3.030l-0.576 2.303h-2.959c-2.209 0-4 1.791-4 4v13.333c0 2.209 1.791 4 4 4h21.333c2.209 0 4-1.791 4-4v-13.333c0-2.209-1.791-4-4-4h-2.959l-0.576-2.303c-0.445-1.781-2.045-3.030-3.881-3.030h-6.502zM11.455 6.343c0.148-0.594 0.682-1.010 1.294-1.010h6.502c0.612 0 1.145 0.416 1.294 1.010l0.576 2.303c0.297 1.187 1.363 2.020 2.587 2.020h2.959c0.736 0 1.333 0.597 1.333 1.333v13.333c0 0.736-0.597 1.333-1.333 1.333h-21.333c-0.736 0-1.333-0.597-1.333-1.333v-13.333c0-0.736 0.597-1.333 1.333-1.333h2.959c1.224 0 2.29-0.833 2.587-2.020l0.576-2.303z"></path>
</svg>
