<!-- Generated by IcoMoon.io -->
<svg version="1.1" xmlns="http://www.w3.org/2000/svg" width="32" height="32" viewBox="0 0 32 32">
<path d="M10.724 6.901c-1.301 0.999-2.055 2.34-2.5 3.677-0.443 1.327-0.602 2.71-0.68 3.875-0.032 0.473-0.051 0.927-0.067 1.328l-0.011 0.27c-0.021 0.481-0.042 0.84-0.077 1.105-0.263 1.963-0.587 3.329-1.047 4.418-0.449 1.064-1.051 1.917-1.95 2.816-0.381 0.381-0.495 0.955-0.289 1.453s0.693 0.823 1.232 0.823h8.357c-0.227 0.392-0.357 0.848-0.357 1.333 0 1.473 1.194 2.667 2.667 2.667s2.667-1.194 2.667-2.667c0-0.486-0.13-0.941-0.357-1.333h8.357c0.539 0 1.025-0.325 1.232-0.823s0.092-1.072-0.289-1.453c-0.897-0.897-1.501-1.757-1.951-2.825-0.461-1.093-0.785-2.46-1.046-4.409-0.035-0.265-0.056-0.624-0.077-1.105l-0.011-0.27c-0.017-0.401-0.036-0.855-0.067-1.328-0.078-1.165-0.238-2.547-0.68-3.875-0.446-1.337-1.199-2.678-2.5-3.677-0.737-0.566-1.609-0.991-2.628-1.255 0.012-0.103 0.018-0.207 0.018-0.313 0-1.473-1.194-2.667-2.667-2.667s-2.667 1.194-2.667 2.667c0 0.106 0.006 0.21 0.018 0.313-1.019 0.264-1.891 0.689-2.628 1.255zM8.092 24c0.263-0.435 0.497-0.894 0.706-1.388 0.593-1.405 0.957-3.038 1.233-5.102 0.054-0.401 0.078-0.876 0.098-1.343l0.012-0.288c0.017-0.399 0.034-0.812 0.063-1.249 0.073-1.085 0.213-2.203 0.549-3.209 0.332-0.996 0.835-1.822 1.595-2.406 0.752-0.577 1.882-1.016 3.652-1.016s2.9 0.438 3.652 1.016c0.76 0.584 1.263 1.41 1.595 2.406 0.336 1.006 0.477 2.123 0.549 3.209 0.029 0.436 0.047 0.85 0.063 1.249l0.012 0.288c0.020 0.467 0.044 0.941 0.098 1.343 0.275 2.051 0.638 3.684 1.231 5.091 0.21 0.498 0.446 0.961 0.71 1.399h-15.82z"></path>
</svg>
