<!-- Generated by IcoMoon.io -->
<svg version="1.1" xmlns="http://www.w3.org/2000/svg" width="32" height="32" viewBox="0 0 32 32">
<path d="M18.667 5.333c0 0.106-0.006 0.21-0.018 0.313 0.829 0.215 1.56 0.536 2.201 0.953l-1.956 1.956c-0.705-0.334-1.638-0.554-2.893-0.554-1.77 0-2.9 0.438-3.652 1.016-0.76 0.584-1.263 1.41-1.595 2.406-0.336 1.006-0.477 2.123-0.549 3.209-0.029 0.436-0.047 0.85-0.063 1.249l-0.012 0.288c-0.019 0.426-0.040 0.859-0.085 1.237l-3.424 3.423c0.317-0.959 0.561-2.132 0.767-3.671 0.036-0.265 0.056-0.624 0.077-1.105l0.011-0.27c0.017-0.401 0.036-0.855 0.067-1.328 0.078-1.165 0.238-2.547 0.68-3.875 0.446-1.337 1.199-2.678 2.5-3.677 0.737-0.566 1.609-0.991 2.628-1.255-0.012-0.103-0.018-0.207-0.018-0.313 0-1.473 1.194-2.667 2.667-2.667s2.667 1.194 2.667 2.667zM16 30.667c1.473 0 2.667-1.194 2.667-2.667 0-0.486-0.13-0.941-0.357-1.333h8.357c0.539 0 1.025-0.325 1.232-0.823s0.092-1.072-0.289-1.453c-0.897-0.897-1.501-1.757-1.951-2.825-0.461-1.093-0.785-2.46-1.046-4.409-0.035-0.265-0.056-0.624-0.077-1.105l-0.011-0.27c-0.017-0.401-0.036-0.855-0.067-1.328-0.044-0.652-0.113-1.373-0.243-2.114l-2.41 2.41c0.025 0.393 0.040 0.768 0.056 1.131l0.012 0.288c0.020 0.467 0.044 0.941 0.098 1.343 0.275 2.051 0.638 3.684 1.231 5.091 0.21 0.498 0.446 0.961 0.71 1.399h-11.359l-2.667 2.667h3.805c-0.227 0.392-0.357 0.848-0.357 1.333 0 1.473 1.194 2.667 2.667 2.667zM26.276 7.609c0.521-0.521 0.521-1.365 0-1.886s-1.365-0.521-1.886 0l-21.333 21.333c-0.521 0.521-0.521 1.365 0 1.886s1.365 0.521 1.886 0l21.333-21.333z"></path>
</svg>
