<!-- Generated by IcoMoon.io -->
<svg version="1.1" xmlns="http://www.w3.org/2000/svg" width="32" height="32" viewBox="0 0 32 32">
<path d="M31.901 4.801c-0.015-0.024-0.032-0.047-0.051-0.069-0.178-0.214-0.473-0.284-0.727-0.184l-30.711 11.684c-0.267 0.102-0.434 0.368-0.41 0.653s0.235 0.519 0.516 0.573l8.4 1.632 1.8 7.898c0 0.002 0.001 0.003 0.001 0.005l0.001 0.004c0.017 0.075 0.050 0.143 0.091 0.205 0.004 0.007 0.005 0.015 0.009 0.021 0.007 0.009 0.018 0.012 0.025 0.021 0.055 0.071 0.121 0.131 0.2 0.173 0.004 0.002 0.008 0.006 0.012 0.008 0.059 0.029 0.122 0.051 0.189 0.061 0.033 0.005 0.066 0.007 0.098 0.007 0 0 0 0 0 0s0 0 0 0c0.001 0 0.003-0.001 0.004-0.001 0.059-0 0.117-0.010 0.172-0.026 0.019-0.005 0.036-0.015 0.054-0.022 0.039-0.015 0.077-0.032 0.112-0.055 0.008-0.005 0.017-0.007 0.025-0.012l8.805-6.186 4.981 0.939c0.040 0.007 0.080 0.011 0.119 0.011 0.267 0 0.512-0.168 0.603-0.428l5.74-16.352c0.011-0.030 0.019-0.060 0.026-0.091 0 0 0 0 0-0.001 0.010-0.048 0.014-0.097 0.013-0.145-0.003-0.113-0.036-0.226-0.099-0.326zM2.966 16.631l22.185-8.441-15.823 9.677-6.362-1.236zM11.61 25.143l-1.435-6.294 15.912-9.731-10.915 10.027c-0.047 0.043-0.085 0.092-0.116 0.145-0.001 0.001-0.001 0.001-0.002 0.002l-3.444 5.851zM13.394 24.633l2.534-4.305 2.833 0.534-5.367 3.77zM25.194 20.774l-8.216-1.55 12.931-11.878-4.714 13.428z"></path>
</svg>
