<!-- Generated by IcoMoon.io -->
<svg version="1.1" xmlns="http://www.w3.org/2000/svg" width="32" height="32" viewBox="0 0 32 32">
<path d="M3.586 8.939c-0.218-0.508-0.805-0.743-1.313-0.525s-0.743 0.805-0.525 1.313l1.838-0.788zM12.055 18.317c0.301-0.463 0.17-1.082-0.293-1.383s-1.082-0.17-1.384 0.293l1.676 1.091zM8.495 20.121c-0.301 0.463-0.17 1.082 0.293 1.383s1.082 0.17 1.384-0.293l-1.676-1.091zM30.253 9.727c0.217-0.508-0.018-1.096-0.525-1.313s-1.095 0.018-1.313 0.525l1.838 0.788zM26.626 17.546c0.391 0.391 1.024 0.391 1.414 0s0.391-1.024 0-1.414l-1.414 1.414zM15 22c0 0.552 0.448 1 1 1s1-0.448 1-1h-2zM21.829 21.212c0.301 0.463 0.921 0.594 1.383 0.293s0.594-0.921 0.293-1.383l-1.676 1.091zM7.374 15.546c0.391-0.391 0.391-1.024 0-1.414s-1.024-0.391-1.414 0l1.414 1.414zM3.96 16.131c-0.391 0.391-0.391 1.024 0 1.414s1.024 0.391 1.414 0l-1.414-1.414zM16 17.667c-4.299 0-7.385-2.141-9.434-4.347-1.024-1.103-1.775-2.209-2.269-3.039-0.247-0.414-0.428-0.757-0.546-0.993-0.059-0.118-0.102-0.209-0.13-0.268-0.014-0.030-0.024-0.052-0.030-0.065-0.003-0.007-0.005-0.012-0.006-0.014-0 0 0 0 0 0s0 0-0.919 0.394-0.919 0.393-0.919 0.394 0.001 0.002 0.001 0.002c0 0.001 0.001 0.002 0.001 0.003 0.001 0.002 0.002 0.005 0.004 0.008 0.003 0.007 0.007 0.015 0.012 0.026 0.010 0.022 0.024 0.052 0.041 0.091 0.036 0.077 0.088 0.187 0.156 0.324 0.137 0.274 0.342 0.661 0.616 1.122 0.547 0.92 1.38 2.147 2.522 3.377 2.284 2.46 5.865 4.986 10.899 4.986v-2zM20.417 16.841c-1.294 0.509-2.761 0.826-4.417 0.826v2c1.918 0 3.633-0.368 5.149-0.965l-0.733-1.861zM10.379 17.226l-1.884 2.895 1.676 1.091 1.884-2.895-1.676-1.091zM29.333 9.333c-0.919-0.394-0.919-0.394-0.919-0.394s0.001-0.001 0.001-0.001c-0 0-0.001 0.001-0.001 0.003-0.001 0.003-0.004 0.009-0.008 0.018-0.008 0.017-0.020 0.045-0.038 0.083-0.035 0.075-0.090 0.189-0.164 0.335-0.149 0.293-0.378 0.714-0.69 1.214-0.625 1.003-1.572 2.305-2.865 3.518l1.369 1.458c1.452-1.363 2.505-2.813 3.194-3.919 0.345-0.554 0.602-1.026 0.774-1.363 0.086-0.169 0.151-0.304 0.195-0.399 0.022-0.048 0.039-0.085 0.051-0.112 0.006-0.013 0.011-0.024 0.014-0.032 0.002-0.004 0.003-0.007 0.004-0.010 0.001-0.001 0.001-0.002 0.001-0.003s0.001-0.002 0.001-0.002c0 0 0-0 0 0s0 0-0.919-0.394zM24.649 14.109c-1.145 1.075-2.55 2.070-4.232 2.732l0.733 1.861c1.965-0.773 3.58-1.925 4.869-3.135l-1.369-1.458zM24.626 15.546l2 2 1.414-1.414-2-2-1.414 1.414zM15 18.667v3.333h2v-3.333h-2zM19.945 18.317l1.884 2.895 1.676-1.091-1.884-2.895-1.676 1.091zM5.96 14.131l-2 2 1.414 1.414 2-2-1.414-1.414z"></path>
</svg>
