<!-- Generated by IcoMoon.io -->
<svg version="1.1" xmlns="http://www.w3.org/2000/svg" width="32" height="32" viewBox="0 0 32 32">
<path fill="#fff" d="M32 0h-32v32h32v-32z"></path>
<path fill="#333" d="M2.667 16c0 7.364 5.97 13.333 13.333 13.333s13.333-5.97 13.333-13.333c0-7.364-5.97-13.333-13.333-13.333s-13.333 5.97-13.333 13.333zM20.943 12.391c0.521 0.521 0.521 1.365 0 1.886l-4.91 4.91c-0.754 0.754-1.977 0.754-2.731 0l-2.244-2.244c-0.521-0.521-0.521-1.365 0-1.886s1.365-0.521 1.886 0l1.724 1.724 4.391-4.391c0.521-0.521 1.365-0.521 1.886 0z"></path>
</svg>
