<!-- Generated by IcoMoon.io -->
<svg version="1.1" xmlns="http://www.w3.org/2000/svg" width="32" height="32" viewBox="0 0 32 32">
<path d="M30.667 5.333c0-2.209-1.791-4-4-4h-5.333c-0.736 0-1.333 0.597-1.333 1.333s0.597 1.333 1.333 1.333h5.333c0.736 0 1.333 0.597 1.333 1.333v5.333c0 0.736 0.597 1.333 1.333 1.333s1.333-0.597 1.333-1.333v-5.333z"></path>
<path d="M30.667 21.333c0-0.736-0.597-1.333-1.333-1.333s-1.333 0.597-1.333 1.333v5.333c0 0.736-0.597 1.333-1.333 1.333h-5.333c-0.736 0-1.333 0.597-1.333 1.333s0.597 1.333 1.333 1.333h5.333c2.209 0 4-1.791 4-4v-5.333z"></path>
<path d="M10.667 28h-5.333c-0.736 0-1.333-0.597-1.333-1.333v-5.333c0-0.736-0.597-1.333-1.333-1.333s-1.333 0.597-1.333 1.333v5.333c0 2.209 1.791 4 4 4h5.333c0.736 0 1.333-0.597 1.333-1.333s-0.597-1.333-1.333-1.333z"></path>
<path d="M1.333 10.667c0 0.736 0.597 1.333 1.333 1.333s1.333-0.597 1.333-1.333v-5.333c0-0.736 0.597-1.333 1.333-1.333h5.333c0.736 0 1.333-0.597 1.333-1.333s-0.597-1.333-1.333-1.333h-5.333c-2.209 0-4 1.791-4 4v5.333z"></path>
<path d="M14.667 12c0-0.736 0.597-1.333 1.333-1.333s1.333 0.597 1.333 1.333v2.667h2.667c0.736 0 1.333 0.597 1.333 1.333s-0.597 1.333-1.333 1.333h-2.667v2.667c0 0.736-0.597 1.333-1.333 1.333s-1.333-0.597-1.333-1.333v-2.667h-2.667c-0.736 0-1.333-0.597-1.333-1.333s0.597-1.333 1.333-1.333h2.667v-2.667z"></path>
</svg>
